<svg height='100px' width='100px'  fill="#000000" xmlns="http://www.w3.org/2000/svg" data-name="Layer 1" viewBox="0 0 512 512" x="0px" y="0px"><title>financial</title><path d="M89.61,243.4a6,6,0,0,0,6-6V160.07a6,6,0,0,0-6-6H50.38a6,6,0,0,0-6,6V237.4a6,6,0,0,0,6,6Zm-40.23-6V160.07a1,1,0,0,1,1-1H89.61a1,1,0,0,1,1,1V237.4a1,1,0,0,1-1,1H50.38A1,1,0,0,1,49.38,237.4Z"></path><path d="M92.94,257.64a17,17,0,0,0,17-17V156.83a17,17,0,0,0-17-17H80.51V93.21a10.52,10.52,0,1,0-21,0v46.62H47a17,17,0,0,0-17,17v83.81a17,17,0,0,0,17,17Zm-57.9-17V156.83a12,12,0,0,1,12-12H62a2.5,2.5,0,0,0,2.5-2.5V93.21a5.52,5.52,0,1,1,11,0v49.12a2.5,2.5,0,0,0,2.5,2.5H92.94a12,12,0,0,1,12,12v83.81a12,12,0,0,1-12,12H47A12,12,0,0,1,35,240.64Z"></path><path d="M326,297.12h12.43v46.62a10.52,10.52,0,1,0,21,0V297.12h12.43a17,17,0,0,0,17-17V196.31a17,17,0,0,0-17-17H326a17,17,0,0,0-17,17v83.81A17,17,0,0,0,326,297.12ZM314,196.31a12,12,0,0,1,12-12h45.9a12,12,0,0,1,12,12v83.81a12,12,0,0,1-12,12H357a2.5,2.5,0,0,0-2.5,2.5v49.12a5.52,5.52,0,1,1-11,0V294.62a2.5,2.5,0,0,0-2.5-2.5H326a12,12,0,0,1-12-12Z"></path><path d="M330.12,282.88h37.74a6.75,6.75,0,0,0,6.75-6.75V200.29a6.75,6.75,0,0,0-6.75-6.75H330.12a6.75,6.75,0,0,0-6.75,6.75v75.84A6.75,6.75,0,0,0,330.12,282.88Zm-1.75-82.59a1.75,1.75,0,0,1,1.75-1.75h37.74a1.75,1.75,0,0,1,1.75,1.75v75.84a1.75,1.75,0,0,1-1.75,1.75H330.12a1.75,1.75,0,0,1-1.75-1.75Z"></path><path d="M419.06,208.46h12.43V256a10.52,10.52,0,0,0,21,0V208.46H465a17,17,0,0,0,17-17V172.53a17,17,0,0,0-17-17H452.53V107.78a10.52,10.52,0,1,0-21,0v47.76H419.06a17,17,0,0,0-17,17v18.93A17,17,0,0,0,419.06,208.46Zm-12-35.93a12,12,0,0,1,12-12H434a2.5,2.5,0,0,0,2.5-2.5V107.78a5.52,5.52,0,0,1,11,0V158a2.5,2.5,0,0,0,2.5,2.5H465a12,12,0,0,1,12,12v18.93a12,12,0,0,1-12,12H450a2.5,2.5,0,0,0-2.5,2.5v50a5.52,5.52,0,0,1-11,0V206a2.5,2.5,0,0,0-2.5-2.5H419.06a12,12,0,0,1-12-12Z"></path><path d="M421.67,192.32H465a4,4,0,0,0,4-4V175.43a4,4,0,0,0-4-4H421.67a4,4,0,0,0-4,4v12.89A4,4,0,0,0,421.67,192.32Zm1-15.89H464v10.89H422.67Z"></path><path d="M240.14,378.88h37.74a6.75,6.75,0,0,0,6.75-6.75V296.29a6.75,6.75,0,0,0-6.75-6.75H240.14a6.75,6.75,0,0,0-6.75,6.75v75.84A6.75,6.75,0,0,0,240.14,378.88Zm-1.75-82.59a1.75,1.75,0,0,1,1.75-1.75h37.74a1.75,1.75,0,0,1,1.75,1.75v75.84a1.75,1.75,0,0,1-1.75,1.75H240.14a1.75,1.75,0,0,1-1.75-1.75Z"></path><path d="M236.06,393.11h12.43v25.67a10.52,10.52,0,1,0,21,0V393.11H282a17,17,0,0,0,17-17V292.3a17,17,0,0,0-17-17H269.53V251.83a10.52,10.52,0,0,0-21,0V275.3H236.06a17,17,0,0,0-17,17v83.81A17,17,0,0,0,236.06,393.11Zm-12-100.81a12,12,0,0,1,12-12H251a2.5,2.5,0,0,0,2.5-2.5v-26a5.52,5.52,0,0,1,11,0v26a2.5,2.5,0,0,0,2.5,2.5H282a12,12,0,0,1,12,12v83.81a12,12,0,0,1-12,12H267a2.5,2.5,0,0,0-2.5,2.5v28.17a5.52,5.52,0,1,1-11,0V390.61a2.5,2.5,0,0,0-2.5-2.5H236.06a12,12,0,0,1-12-12Z"></path><path d="M138.62,397.61a2.5,2.5,0,0,0,1.46.47h41.39a2.5,2.5,0,0,0,1.46-.47,5.53,5.53,0,0,0,2.29-4.47V233.06a5.51,5.51,0,0,0-3.34-5.07,2.49,2.49,0,0,0-1-.2H140.66a2.5,2.5,0,0,0-1,.2,5.51,5.51,0,0,0-3.35,5.07V393.15A5.53,5.53,0,0,0,138.62,397.61Zm2.7-164.55a.49.49,0,0,1,.08-.27h38.75a.49.49,0,0,1,.08.27v160H141.33Z"></path><path d="M135.53,412.86h49.93a15,15,0,0,0,15-15V228.56a15,15,0,0,0-15-15H170.62V164.1a9.41,9.41,0,0,0-18.81,0v49.48H135.53a15,15,0,0,0-15,15V397.88A15,15,0,0,0,135.53,412.86Zm-10-184.3a10,10,0,0,1,10-10H154.3a2.5,2.5,0,0,0,2.5-2.5v-52a4.41,4.41,0,0,1,8.81,0v52a2.5,2.5,0,0,0,2.5,2.5h17.34a10,10,0,0,1,10,10V397.88a10,10,0,0,1-10,10H135.53a10,10,0,0,1-10-10Z"></path></svg>