<?xml version="1.0" encoding="UTF-8"?>
<svg width="1200pt" height="1200pt" version="1.1" viewBox="0 0 1200 1200" xmlns="http://www.w3.org/2000/svg">
 <path d="m924.1 874.6c-17.949-20.949-49.551-23.352-70.551-5.3516l-205.7 176.31v-995.56c0-27.602-22.352-50-50-50-27.602 0-50 22.398-50 50v988.5l-201.9-169.7c-21.102-17.75-52.699-14.938-70.449 6.1992-17.75 21.102-15 52.648 6.1484 70.398l274.75 230.9c8.8516 13.961 23.75 23.699 41.5 23.699 0.85156 0 1.5-0.39844 2.3008-0.39844 0.89844 0 1.75 0.39844 2.6992 0.39844 11.551 0 23.148-4 32.449-12l283.3-242.86c21-18.031 23.453-49.57 5.4531-70.531z"/>
</svg>
