<svg height='100px' width='100px'  fill="currentcolor" xmlns:x="http://ns.adobe.com/Extensibility/1.0/" xmlns:i="http://ns.adobe.com/AdobeIllustrator/10.0/" xmlns:graph="http://ns.adobe.com/Graphs/1.0/" xmlns="http://www.w3.org/2000/svg" xmlns:xlink="http://www.w3.org/1999/xlink" version="1.1" x="0px" y="0px" viewBox="0 0 100 100" style="enable-background:new 0 0 100 100;" xml:space="preserve"><g><g i:extraneous="self"><path d="M62.7,21.9H33v-9.3c0-3.4-4-5.4-6.7-3.2L4.1,26.9c-2.1,1.7-2.1,4.8,0,6.5L26.3,51c2.7,2.1,6.7,0.2,6.7-3.2v-9.3h29.7    c10.1,0,18.3,8.2,18.3,18.3S72.8,75,62.7,75H22.9c-4.6,0-8.3,3.7-8.3,8.3c0,4.6,3.7,8.3,8.3,8.3h39.8c19.2,0,34.8-15.6,34.8-34.8    C97.5,37.5,81.9,21.9,62.7,21.9z"></path></g></g></svg>
