<svg height='100px' width='100px'  fill="currentcolor" xmlns:dc="http://purl.org/dc/elements/1.1/" xmlns:cc="http://creativecommons.org/ns#" xmlns:rdf="http://www.w3.org/1999/02/22-rdf-syntax-ns#" xmlns:svg="http://www.w3.org/2000/svg" xmlns="http://www.w3.org/2000/svg" xmlns:sodipodi="http://sodipodi.sourceforge.net/DTD/sodipodi-0.dtd" xmlns:inkscape="http://www.inkscape.org/namespaces/inkscape" version="1.1" x="0px" y="0px" viewBox="0 0 100 100"><g transform="translate(0,-952.36218)"><path style="text-indent:0;text-transform:none;direction:ltr;block-progression:tb;baseline-shift:baseline;color:currentcolor;enable-background:accumulate;" d="m 30,959.36217 c -2.7527,0 -5,2.2473 -5,5 l 0,5 -13,0 c -1.6447,0 -3,1.3553 -3,3 l 0,70.00003 c 0,1.6447 1.3553,3 3,3 l 76,0 c 1.6447,0 3,-1.3553 3,-3 l 0,-70.00003 c 0,-1.6447 -1.3553,-3 -3,-3 l -13,0 0,-5 c 0,-2.7527 -2.2473,-5 -5,-5 -2.7527,0 -5,2.2473 -5,5 l 0,5 -30,0 0,-5 c 0,-2.7527 -2.2473,-5 -5,-5 z m 0,2 c 1.6793,0 3,1.3207 3,3 l 0,12 c 0,1.6793 -1.3207,3 -3,3 -1.6793,0 -3,-1.3207 -3,-3 l 0,-12 c 0,-1.6793 1.3207,-3 3,-3 z m 40,0 c 1.6793,0 3,1.3207 3,3 l 0,12 c 0,1.6793 -1.3207,3 -3,3 -1.6793,0 -3,-1.3207 -3,-3 l 0,-12 c 0,-1.6793 1.3207,-3 3,-3 z m -58,10 13,0 0,5 c 0,2.7527 2.2473,5 5,5 2.7527,0 5,-2.2473 5,-5 l 0,-5 30,0 0,5 c 0,2.7527 2.2473,5 5,5 2.7527,0 5,-2.2473 5,-5 l 0,-5 13,0 c 0.5713,0 1,0.4287 1,1 l 0,19 -78,0 0,-19 c 0,-0.5713 0.4287,-1 1,-1 z m -1,22 78,0 0,49.00003 c 0,0.5713 -0.4287,1 -1,1 l -76,0 c -0.5713,0 -1,-0.4287 -1,-1 l 0,-49.00003 z m 35,9.00003 c -6.6137,0 -12,5.3863 -12,12 0,6.6137 5.3863,12 12,12 2.9493,0 5.6584,-1.0711 7.75,-2.8438 l 10.5625,10.5626 c 0.3871,0.387 1.0191,0.3871 1.4063,0 0.387,-0.3872 0.387,-1.0193 0,-1.4063 l -10.5626,-10.5625 c 1.7729,-2.0916 2.8438,-4.8006 2.8438,-7.75 0,-6.6137 -5.3864,-12 -12,-12 z m 0,2 c 5.5331,0 10,4.4669 10,10 0,5.5331 -4.4669,10 -10,10 -5.5331,0 -10,-4.4669 -10,-10 0,-5.5331 4.4669,-10 10,-10 z" fill="currentcolor" fill-opacity="1" stroke="none" marker="none" visibility="visible" display="inline" overflow="visible"></path></g></svg>
