<svg xmlns="http://www.w3.org/2000/svg" viewBox="0 0 24 24" x="0px" y="0px"><title>compress</title><path d="M15,19a1,1,0,0,1-.71-.29L12,16.41,9.71,18.71a1,1,0,0,1-1.41-1.41l3-3a1,1,0,0,1,1.41,0l3,3A1,1,0,0,1,15,19Z"></path><path d="M12,10a1,1,0,0,1-.71-.29l-3-3A1,1,0,0,1,9.71,5.29L12,7.59l2.29-2.29a1,1,0,0,1,1.41,1.41l-3,3A1,1,0,0,1,12,10Z"></path><path d="M19,13H5a1,1,0,0,1,0-2H19a1,1,0,0,1,0,2Z"></path><path d="M12,22a1,1,0,0,1-1-1V15a1,1,0,0,1,2,0v6A1,1,0,0,1,12,22Z"></path><path d="M12,10a1,1,0,0,1-1-1V3a1,1,0,0,1,2,0V9A1,1,0,0,1,12,10Z"></path></svg>