<svg height='100px' width='100px'  fill="currentcolor" xmlns="http://www.w3.org/2000/svg" data-name="Layer 1" viewBox="0 0 40 40" x="0px" y="0px"><title>Artboard 5</title><path d="M28.71,27.29,25.31,23.9a8,8,0,1,0-1.41,1.41l3.39,3.39a1,1,0,0,0,1.41-1.41ZM13,19a6,6,0,1,1,6,6A6,6,0,0,1,13,19Z"></path><path d="M21.71,16.29a1,1,0,0,0-1.41,0L19,17.59l-1.29-1.29a1,1,0,0,0-1.41,1.41L17.59,19l-1.29,1.29a1,1,0,1,0,1.41,1.41L19,20.41l1.29,1.29a1,1,0,0,0,1.41-1.41L20.41,19l1.29-1.29A1,1,0,0,0,21.71,16.29Z"></path></svg>
