<svg height='100px' width='100px'  fill="currentcolor" xmlns="http://www.w3.org/2000/svg" xmlns:xlink="http://www.w3.org/1999/xlink" version="1.0" x="0px" y="0px" viewBox="0 0 128 128" style="enable-background:new 0 0 128 128;" xml:space="preserve"><g><rect x="120.3" y="60.8" width="5" height="2"></rect><rect x="120.3" y="56.8" width="5" height="2"></rect><rect x="120.3" y="84.8" width="5" height="2"></rect><rect x="120.3" y="52.8" width="5" height="2"></rect><rect x="120.3" y="76.8" width="5" height="2"></rect><rect x="120.3" y="80.8" width="5" height="2"></rect><rect x="120.3" y="68.8" width="5" height="2"></rect><rect x="120.3" y="48.8" width="5" height="2"></rect><rect x="120.3" y="72.8" width="5" height="2"></rect><rect x="120.3" y="64.8" width="5" height="2"></rect><rect x="120.3" y="20.8" width="5" height="2"></rect><rect x="120.3" y="16.8" width="5" height="2"></rect><rect x="120.3" y="12.8" width="5" height="2"></rect><rect x="120.3" y="24.8" width="5" height="2"></rect><rect x="120.3" y="28.8" width="5" height="2"></rect><rect x="120.3" y="44.8" width="5" height="2"></rect><rect x="120.3" y="40.8" width="5" height="2"></rect><rect x="120.3" y="32.8" width="5" height="2"></rect><rect x="120.3" y="36.8" width="5" height="2"></rect><rect x="120.3" y="104.8" width="5" height="2"></rect><rect x="120.3" y="108.8" width="5" height="2"></rect><rect x="120.3" y="112.8" width="5" height="2"></rect><rect x="120.3" y="92.8" width="5" height="2"></rect><rect x="120.3" y="100.8" width="5" height="2"></rect><rect x="120.3" y="96.8" width="5" height="2"></rect><rect x="120.3" y="88.8" width="5" height="2"></rect><rect x="84.3" y="78.6" width="2" height="5"></rect><rect x="76.3" y="78.6" width="2" height="5"></rect><rect x="88.3" y="78.6" width="2" height="5"></rect><rect x="72.3" y="78.6" width="2" height="5"></rect><rect x="96.3" y="78.6" width="2" height="5"></rect><rect x="112.3" y="78.6" width="2" height="5"></rect><rect x="116.3" y="78.6" width="2" height="5"></rect><rect x="100.3" y="78.6" width="2" height="5"></rect><rect x="68.3" y="78.6" width="2" height="5"></rect><rect x="92.3" y="78.6" width="2" height="5"></rect><rect x="108.3" y="78.6" width="2" height="5"></rect><rect x="104.3" y="78.6" width="2" height="5"></rect><rect x="80.3" y="78.6" width="2" height="5"></rect><rect x="17.2" y="78.6" width="2" height="5"></rect><rect x="21.2" y="78.6" width="2" height="5"></rect><rect x="13.2" y="78.6" width="2" height="5"></rect><rect x="9.2" y="78.6" width="2" height="5"></rect><rect x="37.2" y="78.6" width="2" height="5"></rect><rect x="49.2" y="78.6" width="2" height="5"></rect><rect x="25.2" y="78.6" width="2" height="5"></rect><rect x="53.2" y="78.6" width="2" height="5"></rect><rect x="45.2" y="78.6" width="2" height="5"></rect><rect x="33.2" y="78.6" width="2" height="5"></rect><rect x="57.2" y="78.6" width="2" height="5"></rect><rect x="41.2" y="78.6" width="2" height="5"></rect><rect x="29.2" y="78.6" width="2" height="5"></rect><path d="M66.3,12.9H2.7v102.4h63.7V12.9z M61.3,110.2H7.7V17.9h53.7V110.2z"></path><rect x="84.3" y="45.6" width="2" height="5"></rect><rect x="116.3" y="45.6" width="2" height="5"></rect><rect x="68.3" y="45.6" width="2" height="5"></rect><rect x="92.3" y="45.6" width="2" height="5"></rect><rect x="100.3" y="45.6" width="2" height="5"></rect><rect x="96.3" y="45.6" width="2" height="5"></rect><rect x="88.3" y="45.6" width="2" height="5"></rect><rect x="72.3" y="45.6" width="2" height="5"></rect><rect x="76.3" y="45.6" width="2" height="5"></rect><rect x="112.3" y="45.6" width="2" height="5"></rect><rect x="108.3" y="45.6" width="2" height="5"></rect><rect x="80.3" y="45.6" width="2" height="5"></rect><rect x="104.3" y="45.6" width="2" height="5"></rect><rect x="45.2" y="45.6" width="2" height="5"></rect><rect x="17.2" y="45.6" width="2" height="5"></rect><rect x="57.2" y="45.6" width="2" height="5"></rect><rect x="13.2" y="45.6" width="2" height="5"></rect><rect x="49.2" y="45.6" width="2" height="5"></rect><rect x="53.2" y="45.6" width="2" height="5"></rect><rect x="29.2" y="45.6" width="2" height="5"></rect><rect x="25.2" y="45.6" width="2" height="5"></rect><rect x="33.2" y="45.6" width="2" height="5"></rect><rect x="41.2" y="45.6" width="2" height="5"></rect><rect x="37.2" y="45.6" width="2" height="5"></rect><rect x="21.2" y="45.6" width="2" height="5"></rect><rect x="9.2" y="45.6" width="2" height="5"></rect><rect x="92.3" y="110.2" width="2" height="5"></rect><rect x="72.3" y="110.2" width="2" height="5"></rect><rect x="104.3" y="110.2" width="2" height="5"></rect><rect x="84.3" y="110.2" width="2" height="5"></rect><rect x="112.3" y="110.2" width="2" height="5"></rect><rect x="108.3" y="110.2" width="2" height="5"></rect><rect x="68.3" y="110.2" width="2" height="5"></rect><rect x="80.3" y="110.2" width="2" height="5"></rect><rect x="76.3" y="110.2" width="2" height="5"></rect><rect x="100.3" y="110.2" width="2" height="5"></rect><rect x="88.3" y="110.2" width="2" height="5"></rect><rect x="116.3" y="110.2" width="2" height="5"></rect><rect x="96.3" y="110.2" width="2" height="5"></rect><rect x="88.3" y="12.9" width="2" height="5"></rect><rect x="112.3" y="12.9" width="2" height="5"></rect><rect x="96.3" y="12.9" width="2" height="5"></rect><rect x="92.3" y="12.9" width="2" height="5"></rect><rect x="116.3" y="12.9" width="2" height="5"></rect><rect x="68.3" y="12.9" width="2" height="5"></rect><rect x="108.3" y="12.9" width="2" height="5"></rect><rect x="100.3" y="12.9" width="2" height="5"></rect><rect x="80.3" y="12.9" width="2" height="5"></rect><rect x="104.3" y="12.9" width="2" height="5"></rect><rect x="84.3" y="12.9" width="2" height="5"></rect><rect x="76.3" y="12.9" width="2" height="5"></rect><rect x="72.3" y="12.9" width="2" height="5"></rect></g></svg>
