<svg height='100px' width='100px'  fill="currentcolor" xmlns="http://www.w3.org/2000/svg" xmlns:xlink="http://www.w3.org/1999/xlink" version="1.1" x="0px" y="0px" viewBox="0 0 100 100" enable-background="new 0 0 100 100" xml:space="preserve"><path d="M50,20.692l6.772,12.651c8.385,15.722,14.712,24.925,14.712,36.11C71.484,81.654,60.5,90.234,50,90.234  c-10.565,0-21.484-8.566-21.484-20.781c0-11.186,6.327-20.389,14.702-36.091L50,20.692z M50,0L34.609,28.75  C26.484,43.984,18.75,55.234,18.75,69.453C18.75,87.891,34.922,100,50,100c15,0,31.25-12.109,31.25-30.547  c0-14.219-7.734-25.469-15.859-40.703L50,0z"></path></svg>
