<?xml version="1.0" encoding="UTF-8"?>
<svg width="1200pt" height="1200pt" version="1.1" viewBox="0 0 1200 1200" xmlns="http://www.w3.org/2000/svg">
 <g>
  <path d="m1125 112.5v975c0 20.738-16.762 37.5-37.5 37.5h-487.5c-20.738 0-37.5-16.762-37.5-37.5v-150c0-20.738 16.762-37.5 37.5-37.5h300v-600h-300c-20.738 0-37.5-16.801-37.5-37.5v-150c0-20.699 16.762-37.5 37.5-37.5h487.5c20.738 0 37.5 16.801 37.5 37.5z"/>
  <path d="m787.5 712.5h-450v75c0 15.148-9.1133 28.875-23.137 34.648-4.6523 1.9531-9.5273 2.8516-14.363 2.8516-9.75 0-19.352-3.8242-26.512-10.988l-187.5-187.5c-14.664-14.664-14.664-38.363 0-53.023l187.5-187.5c10.727-10.762 26.852-13.949 40.875-8.1367 14.023 5.8125 23.137 19.5 23.137 34.648v75h450c20.738 0 37.5 16.801 37.5 37.5v150c0 20.738-16.762 37.5-37.5 37.5z"/>
 </g>
</svg>
