<svg height='100px' width='100px'  fill="currentcolor" xmlns:dc="http://purl.org/dc/elements/1.1/" xmlns:cc="http://creativecommons.org/ns#" xmlns:rdf="http://www.w3.org/1999/02/22-rdf-syntax-ns#" xmlns:svg="http://www.w3.org/2000/svg" xmlns="http://www.w3.org/2000/svg" xmlns:sodipodi="http://sodipodi.sourceforge.net/DTD/sodipodi-0.dtd" xmlns:inkscape="http://www.inkscape.org/namespaces/inkscape" viewBox="0 0 26.458333 26.458334" version="1.1" x="0px" y="0px"><g transform="translate(0,-270.54165)"><path d="m 1.8520833,273.98123 c -0.1461188,3e-5 -0.2645674,0.11845 -0.2645833,0.26458 v 3.175 c 1.59e-5,0.14613 0.1184645,0.26456 0.2645833,0.26459 H 24.60625 c 0.146119,-3e-5 0.264568,-0.11846 0.264583,-0.26459 v -3.175 c -1.5e-5,-0.14613 -0.118464,-0.26455 -0.264583,-0.26458 z m 0,5.29167 c -0.1461188,2e-5 -0.2645674,0.11845 -0.2645833,0.26458 v 3.175 c 1.59e-5,0.14613 0.1184645,0.26456 0.2645833,0.26458 h 9.5249997 c 0.146119,-2e-5 0.264568,-0.11845 0.264584,-0.26458 v -3.175 c -1.6e-5,-0.14613 -0.118465,-0.26456 -0.264584,-0.26458 z m 16.9297167,0 c -0.06891,0 -0.134731,0.0288 -0.183452,0.0775 l -3.966167,3.97391 c -0.270897,0.24921 0.125309,0.64487 0.374139,0.37362 l 3.514513,-3.52124 v 13.11498 c -0.0051,0.35779 0.534229,0.35779 0.529167,0 v -13.11498 l 3.514513,3.52124 c 0.248831,0.27125 0.645036,-0.12441 0.37414,-0.37362 l -3.966168,-3.97391 c -0.05049,-0.0505 -0.119266,-0.0785 -0.190685,-0.0775 z M 2.1166667,279.80206 H 11.1125 v 2.64584 H 2.1166667 Z m -0.2645834,4.7625 c -0.1461188,3e-5 -0.2645674,0.11846 -0.2645833,0.26459 v 3.175 c 1.59e-5,0.14613 0.1184645,0.26455 0.2645833,0.26458 h 9.5249997 c 0.146119,-3e-5 0.264568,-0.11845 0.264584,-0.26458 v -3.175 c -1.6e-5,-0.14613 -0.118465,-0.26456 -0.264584,-0.26459 z m 0.2645834,0.52917 H 11.1125 v 2.64583 H 2.1166667 Z m -0.2645834,4.7625 c -0.1461188,3e-5 -0.2645674,0.11845 -0.2645833,0.26458 v 3.175 c 1.59e-5,0.14613 0.1184645,0.26456 0.2645833,0.26459 h 9.5249997 c 0.146119,-3e-5 0.264568,-0.11846 0.264584,-0.26459 v -3.175 c -1.6e-5,-0.14613 -0.118465,-0.26455 -0.264584,-0.26458 z m 0.2645834,0.52917 H 11.1125 v 2.64583 H 2.1166667 Z" style="color:currentcolor;font-style:normal;font-variant:normal;font-weight:normal;font-stretch:normal;font-size:medium;line-height:normal;font-family:sans-serif;font-variant-ligatures:normal;font-variant-position:normal;font-variant-caps:normal;font-variant-numeric:normal;font-variant-alternates:normal;font-feature-settings:normal;text-indent:0;text-align:start;text-decoration:none;text-decoration-line:none;text-decoration-style:solid;text-decoration-color:currentcolor;letter-spacing:normal;word-spacing:normal;text-transform:none;writing-mode:lr-tb;direction:ltr;text-orientation:mixed;dominant-baseline:auto;baseline-shift:baseline;text-anchor:start;white-space:normal;shape-padding:0;clip-rule:nonzero;display:inline;overflow:visible;visibility:visible;opacity:1;isolation:auto;mix-blend-mode:normal;color-interpolation:sRGB;color-interpolation-filters:linearRGB;solid-color:currentcolor;solid-opacity:1;vector-effect:none;fill:currentcolor;fill-opacity:1;fill-rule:evenodd;stroke:none;stroke-width:0.5291667;stroke-linecap:round;stroke-linejoin:round;stroke-miterlimit:4;stroke-dasharray:none;stroke-dashoffset:0;stroke-opacity:1;paint-order:normal;color-rendering:auto;image-rendering:auto;shape-rendering:auto;text-rendering:auto;enable-background:accumulate"></path></g></svg>
