<svg height='100px' width='100px'  fill="currentcolor" xmlns="http://www.w3.org/2000/svg" xmlns:xlink="http://www.w3.org/1999/xlink" version="1.1" x="0px" y="0px" viewBox="0 0 100 100" style="enable-background:new 0 0 100 100;" xml:space="preserve"><path d="M25,40H10c-1.4,0-2.5,1.1-2.5,2.5v15c0,1.4,1.1,2.5,2.5,2.5h15c1.4,0,2.5-1.1,2.5-2.5v-15C27.5,41.1,26.4,40,25,40z   M22.5,55h-10V45h10V55z"></path><path d="M25,10H10c-1.4,0-2.5,1.1-2.5,2.5v15c0,1.4,1.1,2.5,2.5,2.5h15c1.4,0,2.5-1.1,2.5-2.5v-15C27.5,11.1,26.4,10,25,10z   M22.5,25h-10V15h10V25z"></path><path d="M25,70H10c-1.4,0-2.5,1.1-2.5,2.5v15c0,1.4,1.1,2.5,2.5,2.5h15c1.4,0,2.5-1.1,2.5-2.5v-15C27.5,71.1,26.4,70,25,70z   M22.5,85h-10V75h10V85z"></path><path d="M57.5,17.5H35c-1.4,0-2.5,1.1-2.5,2.5s1.1,2.5,2.5,2.5h22.5c1.4,0,2.5-1.1,2.5-2.5S58.9,17.5,57.5,17.5z"></path><path d="M57.5,47.5H35c-1.4,0-2.5,1.1-2.5,2.5s1.1,2.5,2.5,2.5h22.5c1.4,0,2.5-1.1,2.5-2.5S58.9,47.5,57.5,47.5z"></path><path d="M57.5,77.5H35c-1.4,0-2.5,1.1-2.5,2.5s1.1,2.5,2.5,2.5h22.5c1.4,0,2.5-1.1,2.5-2.5S58.9,77.5,57.5,77.5z"></path><path d="M67.5,22.5H90c1.4,0,2.5-1.1,2.5-2.5s-1.1-2.5-2.5-2.5H67.5c-1.4,0-2.5,1.1-2.5,2.5S66.1,22.5,67.5,22.5z"></path><path d="M90,47.5H67.5c-1.4,0-2.5,1.1-2.5,2.5s1.1,2.5,2.5,2.5H90c1.4,0,2.5-1.1,2.5-2.5S91.4,47.5,90,47.5z"></path><path d="M90,77.5H67.5c-1.4,0-2.5,1.1-2.5,2.5s1.1,2.5,2.5,2.5H90c1.4,0,2.5-1.1,2.5-2.5S91.4,77.5,90,77.5z"></path></svg>
