<?xml version="1.0" encoding="UTF-8"?>
<svg width="1200pt" height="1200pt" version="1.1" viewBox="0 0 1200 1200" xmlns="http://www.w3.org/2000/svg">
 <g>
  <path d="m1125 112.5v975c0 20.738-16.801 37.5-37.5 37.5h-487.5c-20.699 0-37.5-16.762-37.5-37.5v-150c0-20.738 16.801-37.5 37.5-37.5h300v-600h-300c-20.699 0-37.5-16.801-37.5-37.5v-150c0-20.699 16.801-37.5 37.5-37.5h487.5c20.699 0 37.5 16.801 37.5 37.5z"/>
  <path d="m562.5 712.5h-450c-20.699 0-37.5-16.762-37.5-37.5v-150c0-20.699 16.801-37.5 37.5-37.5h450v-75c0-15.148 9.1484-28.836 23.137-34.648 14.023-5.8125 30.148-2.625 40.875 8.1367l187.5 187.5c14.664 14.664 14.664 38.363 0 53.023l-187.5 187.5c-7.1602 7.1641-16.762 10.988-26.512 10.988-4.8359 0-9.7109-0.89844-14.363-2.8516-13.988-5.7734-23.137-19.5-23.137-34.648z"/>
 </g>
</svg>
