<svg height='100px' width='100px'  fill="currentcolor" xmlns:dc="http://purl.org/dc/elements/1.1/" xmlns:cc="http://creativecommons.org/ns#" xmlns:rdf="http://www.w3.org/1999/02/22-rdf-syntax-ns#" xmlns:svg="http://www.w3.org/2000/svg" xmlns="http://www.w3.org/2000/svg" xmlns:sodipodi="http://sodipodi.sourceforge.net/DTD/sodipodi-0.dtd" xmlns:inkscape="http://www.inkscape.org/namespaces/inkscape" viewBox="0 0 26.458333 26.458334" version="1.1" x="0px" y="0px"><g transform="translate(0,-270.54165)"><path style="color:currentcolor;font-style:normal;font-variant:normal;font-weight:normal;font-stretch:normal;font-size:medium;line-height:normal;font-family:sans-serif;font-variant-ligatures:normal;font-variant-position:normal;font-variant-caps:normal;font-variant-numeric:normal;font-variant-alternates:normal;font-feature-settings:normal;text-indent:0;text-align:start;text-decoration:none;text-decoration-line:none;text-decoration-style:solid;text-decoration-color:currentcolor;letter-spacing:normal;word-spacing:normal;text-transform:none;writing-mode:lr-tb;direction:ltr;text-orientation:mixed;dominant-baseline:auto;baseline-shift:baseline;text-anchor:start;white-space:normal;shape-padding:0;clip-rule:nonzero;display:inline;overflow:visible;visibility:visible;opacity:1;isolation:auto;mix-blend-mode:normal;color-interpolation:sRGB;color-interpolation-filters:linearRGB;solid-color:currentcolor;solid-opacity:1;vector-effect:none;fill:currentcolor;fill-opacity:1;fill-rule:evenodd;stroke:none;stroke-width:0.5291667;stroke-linecap:round;stroke-linejoin:round;stroke-miterlimit:4;stroke-dasharray:none;stroke-dashoffset:0;stroke-opacity:1;paint-order:normal;color-rendering:auto;image-rendering:auto;shape-rendering:auto;text-rendering:auto;enable-background:accumulate" d="m 12.964583,273.98123 c -0.146118,3e-5 -0.264567,0.11845 -0.264583,0.26458 v 3.175 c 1.6e-5,0.14613 0.118465,0.26456 0.264583,0.26459 H 24.60625 c 0.146119,-3e-5 0.264568,-0.11846 0.264583,-0.26459 v -3.175 c -1.5e-5,-0.14613 -0.118464,-0.26455 -0.264583,-0.26458 z m -4.4979165,0.63201 c -0.584287,0 -1.075113,0.19928 -1.4216193,0.5891 -0.3465063,0.38983 -0.5533046,0.93966 -0.6903958,1.64229 -0.2571168,1.3177 -0.2677477,3.22935 -0.2682002,5.75003 l -1.9259815,-1.96424 c -0.049342,-0.0518 -0.1175755,-0.0815 -0.1891347,-0.0821 -0.2375985,-0.003 -0.357505,0.28554 -0.1886188,0.45267 l 2.3781491,2.4257 c 0.1037828,0.10607 0.2744867,0.10607 0.3782695,0 l 2.3781487,-2.4257 c 0.256014,-0.25188 -0.130865,-0.63135 -0.377753,-0.37052 l -1.9239126,1.96218 c 0.00159,-2.51876 0.01987,-4.42169 0.2588974,-5.64669 0.1274922,-0.65339 0.3175688,-1.11228 0.5663752,-1.39218 0.248806,-0.2799 0.55173,-0.41132 1.025776,-0.41132 0.357802,0.005 0.357802,-0.53422 0,-0.52917 z m 6.6145835,4.65966 c -0.146119,2e-5 -0.264567,0.11845 -0.264583,0.26458 v 3.175 c 1.6e-5,0.14613 0.118464,0.26456 0.264583,0.26458 h 9.525 c 0.146119,-2e-5 0.264568,-0.11845 0.264583,-0.26458 v -3.175 c -1.5e-5,-0.14613 -0.118464,-0.26456 -0.264583,-0.26458 z m 0.264583,0.52916 h 8.995834 v 2.64584 h -8.995834 z m -13.4937497,4.7625 c -0.1461188,3e-5 -0.2645674,0.11846 -0.2645833,0.26459 v 3.175 c 1.59e-5,0.14613 0.1184645,0.26455 0.2645833,0.26458 H 24.60625 c 0.146119,-3e-5 0.264568,-0.11845 0.264583,-0.26458 v -3.175 c -1.5e-5,-0.14613 -0.118464,-0.26456 -0.264583,-0.26459 z m 13.2291667,5.29167 c -0.146119,3e-5 -0.264567,0.11845 -0.264583,0.26458 v 3.175 c 1.6e-5,0.14613 0.118464,0.26456 0.264583,0.26459 h 9.525 c 0.146119,-3e-5 0.264568,-0.11846 0.264583,-0.26459 v -3.175 c -1.5e-5,-0.14613 -0.118464,-0.26455 -0.264583,-0.26458 z m 0.264583,0.52917 h 8.995834 v 2.64583 h -8.995834 z"></path></g></svg>
