<?xml version="1.0" encoding="UTF-8"?>
<svg width="1200pt" height="1200pt" version="1.1" viewBox="0 0 1200 1200" xmlns="http://www.w3.org/2000/svg">
 <path d="m918.25 254.6-284.4-239.05c-1-1-2.1016-1.6992-3.1484-2.5508l-1.4531-1.3008c-0.80078-0.64844-1.6992-0.85156-2.4883-1.3984-3.7617-2.75-7.5508-5.25-12.012-6.8984-3.6992-1.3984-7.5859-1.8516-11.5-2.3516-1.8008-0.15234-3.4492-1.0508-5.3516-1.0508-0.14844 0-0.30078 0.050781-0.44922 0.050781-11.699-0.050781-23.398 3.9492-32.848 11.949l-283.3 242.95c-20.949 17.949-23.398 49.5-5.3984 70.5 17.949 20.949 49.551 23.398 70.5 5.3984l201.5-172.8v991.9c0 27.602 22.398 50 50 50 27.602 0 50-22.398 50-50v-992l206.1 173.16c9.3984 7.8984 20.801 11.75 32.148 11.75 14.25 0 28.387-6.0508 38.336-17.852 17.715-21.051 14.965-52.648-6.2344-70.398z"/>
</svg>
