<svg height='100px' width='100px'  fill="currentcolor" xmlns="http://www.w3.org/2000/svg" xmlns:xlink="http://www.w3.org/1999/xlink" version="1.1" x="0px" y="0px" viewBox="17 -18 100 100" enable-background="new 17 -18 100 100" xml:space="preserve"><path d="M43.4,55.6c-3-2.9-3-2.9-5.9,0l-5.9,5.9c-2.9,3-2.9,3,0,5.9s2.9,2.9,5.9,0l5.9-5.9C46.4,58.5,46.4,58.5,43.4,55.6z   M102.4-3.4c-2.9-2.9-2.9-2.9-5.9,0l-5.9,5.9c-2.9,2.9-2.9,2.9,0,5.9c3,2.9,3,2.9,5.9,0l5.9-5.9C105.3-0.4,105.3-0.4,102.4-3.4z   M90.6,55.6c-2.9,3-2.9,3,0,5.9l5.9,5.9c3,2.9,3,2.9,5.9,0s2.9-2.9,0-5.9l-5.9-5.9C93.5,52.6,93.5,52.6,90.6,55.6z M31.6-3.4  c-2.9,2.9-2.9,2.9,0,5.9l5.9,5.9c2.9,2.9,2.9,2.9,5.9,0c2.9-3,2.9-3,0-5.9l-5.9-5.9C34.6-6.3,34.6-6.3,31.6-3.4z M67,65.3  c-4.2,0-4.2,0-4.2,4.2v8.3c0,4.2,0,4.2,4.2,4.2s4.2,0,4.2-4.2v-8.3C71.2,65.3,71.2,65.3,67,65.3z M67-18c-4.2,0-4.2,0-4.2,4.2v8.3  c0,4.2,0,4.2,4.2,4.2s4.2,0,4.2-4.2v-8.3C71.2-18,71.2-18,67-18z M100.3,32c0,4.2,0,4.2,4.2,4.2h8.3c4.2,0,4.2,0,4.2-4.2  s0-4.2-4.2-4.2h-8.3C100.3,27.8,100.3,27.8,100.3,32z M17,32c0,4.2,0,4.2,4.2,4.2h8.3c4.2,0,4.2,0,4.2-4.2s0-4.2-4.2-4.2h-8.3  C17,27.8,17,27.8,17,32z M67,48.7c-9.2,0-16.7-7.5-16.7-16.7S57.8,15.3,67,15.3S83.7,22.8,83.7,32S76.2,48.7,67,48.7z M67,57  c13.8,0,25-11.2,25-25S80.8,7,67,7S42,18.2,42,32S53.2,57,67,57z"></path></svg>
