<svg height='100px' width='100px'  fill="currentcolor" xmlns="http://www.w3.org/2000/svg" viewBox="0 0 68 58" x="0px" y="0px"><path fill="currentcolor" d="M665,450 C665,463.807119 676.192881,475 690,475 L691.000919,475 C691.547697,475 692,475.45191 692,476.009369 L692,477.990631 C692,478.556647 691.554912,479 691.005869,479 L690,479 C673.983742,479 661,466.016258 661,450 L661,448.828427 L659.120693,450.707734 C658.729413,451.099014 658.094665,451.094665 657.700482,450.700482 L656.299518,449.299518 C655.899284,448.899284 655.904488,448.267085 656.297627,447.873946 L661.585786,442.585786 C662.366835,441.804738 663.633165,441.804738 664.414214,442.585786 L669.702373,447.873946 C670.091628,448.2632 670.094665,448.905335 669.700482,449.299518 L668.299518,450.700482 C667.899284,451.100716 667.269485,451.097912 666.879307,450.707734 L665,448.828427 L665,450 Z M715,450 C715,436.192881 703.807119,425 690,425 L689.004508,425 C688.448033,425 688,424.54809 688,423.990631 L688,422.009369 C688,421.443353 688.447287,421 688.999043,421 L690,421 C706.016258,421 719,433.983742 719,450 L719,451.171573 L720.879307,449.292266 C721.270587,448.900986 721.905335,448.905335 722.299518,449.299518 L723.700482,450.700482 C724.100716,451.100716 724.095512,451.732915 723.702373,452.126054 L718.414214,457.414214 C717.633165,458.195262 716.366835,458.195262 715.585786,457.414214 L710.297627,452.126054 C709.908372,451.7368 709.905335,451.094665 710.299518,450.700482 L711.700482,449.299518 C712.100716,448.899284 712.730515,448.902088 713.120693,449.292266 L715,451.171573 L715,450 Z M678,450 C678,443.372201 683.371751,438 690,438 C696.627799,438 702,443.371751 702,450 C702,456.627799 696.628249,462 690,462 C683.372201,462 678,456.628249 678,450 Z" transform="translate(-656 -421)"></path></svg>
