<svg height='100px' width='100px' fill="currentcolor" xmlns="http://www.w3.org/2000/svg" xmlns:xlink="http://www.w3.org/1999/xlink" version="1.1" x="0px" y="0px" viewBox="0 0 64 64" style="enable-background:new 0 0 64 64;" xml:space="preserve"><g><path d="M21.1,26H11c-1.7,0-3-1.3-3-3s1.3-3,3-3h9v-9c0-1.7,1.3-3,3-3s3,1.3,3,3v10.1C26,23.8,23.8,26,21.1,26z"></path><path d="M53,26H42.9c-2.7,0-4.9-2.2-4.9-4.9V11c0-1.7,1.3-3,3-3s3,1.3,3,3v9h9c1.7,0,3,1.3,3,3S54.7,26,53,26z"></path><path d="M23,56c-1.7,0-3-1.3-3-3v-9h-9c-1.7,0-3-1.3-3-3s1.3-3,3-3h10.1c2.7,0,4.9,2.2,4.9,4.9V53C26,54.7,24.7,56,23,56z M21.1,44   L21.1,44z"></path><path d="M41,56c-1.7,0-3-1.3-3-3V42.9c0-2.7,2.2-4.9,4.9-4.9H53c1.7,0,3,1.3,3,3s-1.3,3-3,3h-9v9C44,54.7,42.7,56,41,56z"></path></g></svg>
