<svg height='100px' width='100px'  fill="currentcolor" xmlns="http://www.w3.org/2000/svg" xmlns:xlink="http://www.w3.org/1999/xlink" version="1.1" x="0px" y="0px" viewBox="0 0 100 100" style="enable-background:new 0 0 100 100;" xml:space="preserve"><path d="M50.7,23.2c-16.2,0-29.3,13.2-29.3,29.3c0,11.1,6.3,21.2,16.1,26.2l0,13.6c0,2.8,2.3,5.2,5.2,5.2h15.7  c2.8,0,5.2-2.3,5.2-5.2V78.9C73.6,74.1,80,63.9,80,52.6C80,36.4,66.8,23.2,50.7,23.2z M58.3,93H42.6c-0.4,0-0.7-0.3-0.7-0.7v-3.7h17  v3.7C59,92.7,58.7,93,58.3,93z M60.4,75.4c-0.8,0.4-1.4,1.2-1.4,2.1v6.6H41.9v-6.8c0-0.9-0.5-1.7-1.3-2c-9-4-14.8-12.9-14.8-22.7  c0-13.7,11.1-24.8,24.8-24.8s24.8,11.1,24.8,24.8C75.5,62.6,69.6,71.5,60.4,75.4z"></path><path d="M48.9,33.5c-9.4,0-17,7.6-17,17c0,1.2,1,2.2,2.2,2.2s2.2-1,2.2-2.2C36.3,43.6,42,38,48.9,38  c1.2,0,2.2-1,2.2-2.2S50.1,33.5,48.9,33.5z"></path><path d="M50.7,15c1.2,0,2.2-1,2.2-2.2v-8c0-1.2-1-2.2-2.2-2.2s-2.2,1-2.2,2.2v8C48.4,14,49.4,15,50.7,15z"></path><path d="M11.1,47.9h-8c-1.2,0-2.2,1-2.2,2.2c0,1.2,1,2.2,2.2,2.2h8c1.2,0,2.2-1,2.2-2.2  C13.3,48.9,12.3,47.9,11.1,47.9z"></path><path d="M96.9,47.9h-8c-1.2,0-2.2,1-2.2,2.2c0,1.2,1,2.2,2.2,2.2h8c1.2,0,2.2-1,2.2-2.2  C99.2,48.9,98.2,47.9,96.9,47.9z"></path><path d="M24.4,25.7c0.9-0.9,0.9-2.3,0-3.2l-5.6-5.6c-0.9-0.9-2.3-0.9-3.2,0c-0.9,0.9-0.9,2.3,0,3.2l5.6,5.6  c0.4,0.4,1,0.7,1.6,0.7S23.9,26.1,24.4,25.7z"></path><path d="M80.6,16.8L75,22.5c-0.9,0.9-0.9,2.3,0,3.2c0.4,0.4,1,0.7,1.6,0.7c0.6,0,1.1-0.2,1.6-0.7l5.6-5.6  c0.9-0.9,0.9-2.3,0-3.2C82.9,16,81.5,16,80.6,16.8z"></path></svg>
