<?xml version="1.0" encoding="UTF-8"?>
<svg width="1200pt" height="1200pt" version="1.1" viewBox="0 0 1200 1200" xmlns="http://www.w3.org/2000/svg">
 <g>
  <path d="m891.27 224.4h-712.46v88.375h712.46c11.719 0 22.957 4.6562 31.246 12.941 8.2852 8.2891 12.941 19.527 12.941 31.246v652.36h88.375v-652.36c0-35.156-13.965-68.875-38.824-93.734-24.863-24.863-58.582-38.828-93.738-38.828z"/>
  <path d="m1067.4 47.648h-712.31v88.379h712.31c11.719 0 22.957 4.6523 31.242 12.941 8.2891 8.2852 12.945 19.527 12.945 31.246v652.36h88.375v-652.36c0-35.16-13.965-68.879-38.828-93.738-24.859-24.859-58.578-38.828-93.734-38.828z"/>
  <path d="m745.16 415.88h-656.78c-23.438 0-45.918 9.3125-62.492 25.887-16.57 16.57-25.883 39.051-25.883 62.488v559.71c0 23.441 9.3125 45.918 25.883 62.492 16.574 16.574 39.055 25.887 62.492 25.887h656.78c23.441 0 45.918-9.3125 62.492-25.887 16.574-16.574 25.887-39.051 25.887-62.492v-559.71c0-23.438-9.3125-45.918-25.887-62.488-16.574-16.574-39.051-25.887-62.492-25.887zm-323.01 513.02c-21.527 21.406-50.652 33.422-81.012 33.422-30.359 0-59.484-12.016-81.012-33.422l-96.625-96.328 62.453-62.453 96.328 96.328c4.9688 4.9492 11.695 7.7266 18.707 7.7266s13.738-2.7773 18.707-7.7266l247.75-247.75 62.453 62.305z"/>
 </g>
</svg>
