<svg height='100px' width='100px'  fill="currentcolor" xmlns="http://www.w3.org/2000/svg" xmlns:xlink="http://www.w3.org/1999/xlink" version="1.1" x="0px" y="0px" viewBox="0 0 65 65" enable-background="new 0 0 65 65" xml:space="preserve"><g><path fill="none" stroke="currentcolor" stroke-width="2" stroke-linejoin="round" stroke-miterlimit="10" d="M62.7,10.9l-8.6-8.6   c-0.5-0.5-1.1-0.8-1.8-0.8H4.1c-1.4,0-2.6,1.2-2.6,2.6v2.3v54.5c0,1.4,1.2,2.6,2.6,2.6h56.8c1.4,0,2.6-1.2,2.6-2.6V15v-2.3   C63.5,12,63.2,11.4,62.7,10.9z"></path><rect x="12.3" y="36.6" fill="none" stroke="currentcolor" stroke-width="2" stroke-linejoin="round" stroke-miterlimit="10" width="40.4" height="26.9"></rect><g><line fill="none" stroke="currentcolor" stroke-width="2" stroke-linejoin="round" stroke-miterlimit="10" x1="16.5" y1="41.9" x2="48.5" y2="41.9"></line><line fill="none" stroke="currentcolor" stroke-width="2" stroke-linejoin="round" stroke-miterlimit="10" x1="16.5" y1="47.3" x2="48.5" y2="47.3"></line><line fill="none" stroke="currentcolor" stroke-width="2" stroke-linejoin="round" stroke-miterlimit="10" x1="16.5" y1="52.8" x2="48.5" y2="52.8"></line><line fill="none" stroke="currentcolor" stroke-width="2" stroke-linejoin="round" stroke-miterlimit="10" x1="16.5" y1="58.3" x2="48.5" y2="58.3"></line></g><path fill="none" stroke="currentcolor" stroke-width="2" stroke-linejoin="round" stroke-miterlimit="10" d="M14.8,1.5V20   c0,1.1,0.9,2,2,2h31.4c1.1,0,2-0.9,2-2V1.5H14.8z"></path><rect x="40.1" y="6.2" fill="none" stroke="currentcolor" stroke-width="2" stroke-linejoin="round" stroke-miterlimit="10" width="5.1" height="11.1"></rect></g></svg>
