<svg height='100px' width='100px'  fill="currentcolor" xmlns="http://www.w3.org/2000/svg" xmlns:xlink="http://www.w3.org/1999/xlink" version="1.1" x="0px" y="0px" viewBox="0 0 100 100" style="enable-background:new 0 0 100 100;" xml:space="preserve"><path d="M8.28,59.37c-1.32-1.32-2.05-3.08-2.05-4.95s0.73-3.63,2.05-4.95l40.31-40.3c0.78-0.78,2.05-0.78,2.83,0l40.3,40.31  c1.32,1.32,2.05,3.08,2.05,4.95s-0.73,3.63-2.05,4.95c-1.36,1.36-3.16,2.05-4.95,2.05s-3.58-0.68-4.95-2.05L50,27.55L18.18,59.37  C15.45,62.1,11.01,62.1,8.28,59.37z M51.41,39.17c-0.78-0.78-2.05-0.78-2.83,0L8.28,79.47c-1.32,1.32-2.05,3.08-2.05,4.95  s0.73,3.63,2.05,4.95c2.73,2.73,7.17,2.73,9.9,0L50,57.55l31.82,31.82c1.36,1.36,3.16,2.05,4.95,2.05s3.58-0.68,4.95-2.05  c1.32-1.32,2.05-3.08,2.05-4.95s-0.73-3.63-2.05-4.95L51.41,39.17z"></path></svg>
