<svg height='100px' width='100px'  fill="currentcolor" xmlns="http://www.w3.org/2000/svg" data-name="Layer 1" viewBox="0 0 24 24" x="0px" y="0px"><title>ff</title><path d="M19.838,6.261l-4.1-4.1A2.583,2.583,0,0,0,13.9,1.4H7A3.6,3.6,0,0,0,3.4,5V19A3.6,3.6,0,0,0,7,22.6H17A3.6,3.6,0,0,0,20.6,19V8.1A2.582,2.582,0,0,0,19.838,6.261ZM19.4,19A2.4,2.4,0,0,1,17,21.4H7A2.4,2.4,0,0,1,4.6,19V5A2.4,2.4,0,0,1,7,2.6h6.9a1.4,1.4,0,0,1,.99.41l4.1,4.1a1.411,1.411,0,0,1,.41.99ZM14.715,7.606a.6.6,0,0,0-.849,0L11.638,9.835l-.005,0,0,.005-3.891,3.89a.6.6,0,0,0-.169.337l-.34,2.312a.6.6,0,0,0,.594.687.657.657,0,0,0,.087-.006l2.311-.341a.6.6,0,0,0,.337-.17l3.889-3.888.008-.005.005-.008,2.227-2.227a.6.6,0,0,0,0-.848ZM9.849,15.564l-1.315.194.193-1.316,3.331-3.33,1.122,1.122Zm4.179-4.179-1.122-1.122,1.385-1.385L15.413,10Z"></path></svg>
