<svg height='100px' width='100px'  fill="currentcolor" xmlns:dc="http://purl.org/dc/elements/1.1/" xmlns:cc="http://creativecommons.org/ns#" xmlns:rdf="http://www.w3.org/1999/02/22-rdf-syntax-ns#" xmlns:svg="http://www.w3.org/2000/svg" xmlns="http://www.w3.org/2000/svg" xmlns:sodipodi="http://sodipodi.sourceforge.net/DTD/sodipodi-0.dtd" xmlns:inkscape="http://www.inkscape.org/namespaces/inkscape" version="1.1" x="0px" y="0px" viewBox="0 0 100 100"><g transform="translate(0,-952.36218)"><path style="text-indent:0;text-transform:none;direction:ltr;block-progression:tb;baseline-shift:baseline;color:currentcolor;enable-background:accumulate;" d="m 30,959.36217 c -2.7527,0 -5,2.2473 -5,5 l 0,5 -13,0 c -1.6447,0 -3,1.3553 -3,3 l 0,70.00003 c 0,1.6447 1.3553,3 3,3 l 76,0 c 1.6447,0 3,-1.3553 3,-3 l 0,-70.00003 c 0,-1.6447 -1.3553,-3 -3,-3 l -13,0 0,-5 c 0,-2.7527 -2.2473,-5 -5,-5 -2.7527,0 -5,2.2473 -5,5 l 0,5 -30,0 0,-5 c 0,-2.7527 -2.2473,-5 -5,-5 z m 0,2 c 1.6793,0 3,1.3207 3,3 l 0,12 c 0,1.6793 -1.3207,3 -3,3 -1.6793,0 -3,-1.3207 -3,-3 l 0,-12 c 0,-1.6793 1.3207,-3 3,-3 z m 40,0 c 1.6793,0 3,1.3207 3,3 l 0,12 c 0,1.6793 -1.3207,3 -3,3 -1.6793,0 -3,-1.3207 -3,-3 l 0,-12 c 0,-1.6793 1.3207,-3 3,-3 z m -58,10 13,0 0,5 c 0,2.7527 2.2473,5 5,5 2.7527,0 5,-2.2473 5,-5 l 0,-5 30,0 0,5 c 0,2.7527 2.2473,5 5,5 2.7527,0 5,-2.2473 5,-5 l 0,-5 13,0 c 0.5713,0 1,0.4287 1,1 l 0,19 -78,0 0,-19 c 0,-0.5713 0.4287,-1 1,-1 z m -1,22 78,0 0,49.00003 c 0,0.5713 -0.4287,1 -1,1 l -76,0 c -0.5713,0 -1,-0.4287 -1,-1 l 0,-49.00003 z m 28,13.00003 c -0.24362,0.01 -0.461,0.1484 -0.65625,0.3438 -0.3906,0.3906 -0.55045,0.844 0.0312,1.4374 l 10.21875,10.2188 -10.3125,10.2812 c -0.3631,0.3592 -0.3904,1.047 0,1.4376 0.3904,0.3904 1.0471,0.3905 1.4375,0 L 50,1019.7997 60.28125,1030.081 c 0.3904,0.3905 1.0471,0.3904 1.4375,0 0.3904,-0.3906 0.3552,-1.0705 0,-1.4376 l -10.3125,-10.2812 10.21875,-10.2188 c 0.5291,-0.6116 0.42165,-1.0468 0.0312,-1.4374 -0.3983,-0.4323 -0.8184,-0.4743 -1.4375,0.031 L 50,1016.956 39.78125,1006.7372 c -0.26745,-0.2674 -0.53763,-0.3853 -0.78125,-0.375 z" fill="currentcolor" fill-opacity="1" stroke="none" marker="none" visibility="visible" display="inline" overflow="visible"></path></g></svg>
