<svg height='100px' width='100px'  fill="currentcolor" xmlns="http://www.w3.org/2000/svg" xmlns:xlink="http://www.w3.org/1999/xlink" version="1.1" x="0px" y="0px" viewBox="0 0 44 44" enable-background="new 0 0 44 44" xml:space="preserve"><path d="M37.51073,13.90674h-4.23633c-1.08789,0-2.08398,0.63916-2.53809,1.62793l-0.64355,1.40247V4.79248  C30.09276,3.25293,28.83983,2,27.29979,2H10.67871C9.13867,2,7.88574,3.25293,7.88574,4.79248v17.07129H5.72461  c-1.11816,0-2.02832,0.90967-2.02832,2.02832c0,0.28369,0.05859,0.55957,0.17383,0.82129l6.91699,15.62451  c0.00293,0.00665,0.01019,0.00909,0.01337,0.01556C11.23944,41.32177,12.21002,42,13.33985,42h24.1709  c1.54004,0,2.79297-1.25293,2.79297-2.79297V16.69922C40.30371,15.15967,39.05078,13.90674,37.51073,13.90674z M8.88574,4.79248  C8.88574,3.8042,9.69043,3,10.67871,3H27.2998c0.98828,0,1.79297,0.8042,1.79297,1.79248v13.18121  c-0.21967,0.0946-0.45203,0.16156-0.69922,0.16156H13.33984c-1.53906,0-2.79199,1.25293-2.79199,2.79297v8.26703  c-0.92639-0.06842-1.66211-0.83575-1.66211-1.77972C8.88573,27.41553,8.88573,4.79248,8.88574,4.79248z M4.69629,23.89209  c0-0.56689,0.46094-1.02832,1.02832-1.02832h2.16113v4.55176c0,1.49524,1.1839,2.70972,2.66211,2.77972v7.13232L4.78418,24.30909  C4.72558,24.17627,4.69629,24.03565,4.69629,23.89209z M39.30371,39.20703C39.30371,40.1958,38.49902,41,37.51073,41h-24.1709  c-0.98828,0-1.79199-0.8042-1.79199-1.79297v-18.2788c0-0.98877,0.80371-1.79297,1.79199-1.79297h15.05371  c0.49622,0,0.96997-0.13818,1.38495-0.37628c0.01208-0.00482,0.02179-0.01257,0.03339-0.01831  c0.48077-0.28461,0.87811-0.70734,1.11877-1.23383l0.71387-1.55518c0.29199-0.63477,0.93164-1.04492,1.62988-1.04492h4.23633  c0.98828,0,1.79297,0.8042,1.79297,1.79248C39.3037,16.69922,39.3037,39.20703,39.30371,39.20703z"></path><path d="M12.67871,11.78028H25.2998c0.27637,0,0.5-0.22363,0.5-0.5s-0.22363-0.5-0.5-0.5H12.67871c-0.27637,0-0.5,0.22363-0.5,0.5  S12.40234,11.78028,12.67871,11.78028z"></path><path d="M12.67871,15.86036H25.2998c0.27637,0,0.5-0.22363,0.5-0.5s-0.22363-0.5-0.5-0.5H12.67871c-0.27637,0-0.5,0.22363-0.5,0.5  S12.40234,15.86036,12.67871,15.86036z"></path><path d="M12.67871,7.7002H25.2998c0.27637,0,0.5-0.22363,0.5-0.5s-0.22363-0.5-0.5-0.5H12.67871c-0.27637,0-0.5,0.22363-0.5,0.5  S12.40234,7.7002,12.67871,7.7002z"></path></svg>
