<svg height='100px' width='100px'  fill="currentcolor" xmlns="http://www.w3.org/2000/svg" data-name="Layer 1" viewBox="0 0 24 24" x="0px" y="0px"><title>ff</title><path d="M14.545,11.3l-1.7,1.7,1.7,1.7a.6.6,0,1,1-.848.849l-1.7-1.7-1.7,1.7a.6.6,0,0,1-.848-.849l1.7-1.7-1.7-1.7a.6.6,0,0,1,.848-.849l1.7,1.7,1.7-1.7a.6.6,0,0,1,.848.849ZM20.6,8.1V19A3.6,3.6,0,0,1,17,22.6H7A3.6,3.6,0,0,1,3.4,19V5A3.6,3.6,0,0,1,7,1.4h6.9a2.582,2.582,0,0,1,1.838.762l4.1,4.1A2.583,2.583,0,0,1,20.6,8.1Zm-1.2,0a1.4,1.4,0,0,0-.41-.99l-4.1-4.1a1.411,1.411,0,0,0-.99-.41H7A2.4,2.4,0,0,0,4.6,5V19A2.4,2.4,0,0,0,7,21.4H17A2.4,2.4,0,0,0,19.4,19Z"></path></svg>
