<svg height='100px' width='100px'  fill="currentcolor" xmlns:x="http://ns.adobe.com/Extensibility/1.0/" xmlns:i="http://ns.adobe.com/AdobeIllustrator/10.0/" xmlns:graph="http://ns.adobe.com/Graphs/1.0/" xmlns="http://www.w3.org/2000/svg" xmlns:xlink="http://www.w3.org/1999/xlink" version="1.1" x="0px" y="0px" viewBox="0 0 100 100" style="enable-background:new 0 0 100 100;" xml:space="preserve"><g><g i:extraneous="self"><path d="M62,50l33-33c3.3-3.3,3.3-8.7,0-12c-3.3-3.3-8.7-3.3-12,0L50,38L17,5C13.7,1.7,8.3,1.7,5,5c-3.3,3.3-3.3,8.7,0,12l33,33    L5,83c-3.3,3.3-3.3,8.7,0,12c1.7,1.7,3.8,2.5,6,2.5s4.3-0.8,6-2.5l33-33l33,33c1.7,1.7,3.8,2.5,6,2.5s4.3-0.8,6-2.5    c3.3-3.3,3.3-8.7,0-12L62,50z"></path></g></g></svg>
