<svg height='100px' width='100px'  fill="currentcolor" xmlns="http://www.w3.org/2000/svg" xmlns:xlink="http://www.w3.org/1999/xlink" version="1.1" x="0px" y="0px" viewBox="0 0 98 98" style="enable-background:new 0 0 98 98;" xml:space="preserve"><path d="M83.5,2.9h-69c-2.2,0-4,1.8-4,4v9.3c0,0.9,0.3,1.8,0.9,2.5L35.6,49v42.1c0,1.5,0.8,2.9,2.2,3.6  c0.6,0.3,1.2,0.4,1.8,0.4c0.9,0,1.7-0.3,2.4-0.8l17.6-13.2l1.3-1c1-0.8,1.6-1.9,1.6-3.2V49L86,19.6l0.7-0.9c0.5-0.7,0.8-1.6,0.8-2.5  V6.9C87.5,4.7,85.7,2.9,83.5,2.9z M42.7,45.1L18.5,14.8v-4h61v4L55.3,45.1c-0.6,0.7-0.9,1.6-0.9,2.5V75l-10.8,8.1V47.6  C43.6,46.7,43.3,45.8,42.7,45.1z"></path></svg>
