<svg height='100px' width='100px'  fill="currentcolor" xmlns="http://www.w3.org/2000/svg" xmlns:xlink="http://www.w3.org/1999/xlink" version="1.1" x="0px" y="0px" viewBox="-489 491 100 100" enable-background="new -489 491 100 100" xml:space="preserve"><path d="M-423.7,544.9h-11.5v-11.5c0-3.8,0-3.8-3.8-3.8c-3.9,0-3.9,0-3.9,3.8v11.5h-11.5c-3.9,0-3.9,0-3.8,3.8  c-0.1,3.8-0.1,3.8,3.8,3.8h11.5v11.5c0,3.9,0,3.9,3.9,3.8c3.8,0,3.8,0,3.8-3.8v-11.5h11.5c3.8-0.1,3.8-0.1,3.8-3.8  C-419.8,544.9-419.8,544.9-423.7,544.9z M-408.2,583.3h-61.5v-76.9h11.5v7.7h38.5v-7.7h11.5V583.3z M-439,494.8  c1.9,0,3.8,1.9,3.8,3.8c0,1.9-1.9,3.8-3.8,3.8s-3.8-1.9-3.8-3.8C-442.8,496.8-440.9,494.8-439,494.8z M-404.4,498.7h-23.1v-3.8  c0-3.8,0-3.8-3.8-3.8h-15.4c-3.8,0-3.8,0-3.8,3.8v3.8h-23.1c-3.8,0-3.8,0-3.8,3.8v84.6c0,3.8,0,3.8,3.8,3.8h69.2  c3.8,0,3.8,0,3.8-3.8v-84.6C-400.5,498.7-400.5,498.7-404.4,498.7z"></path></svg>
