<svg height='100px' width='100px'  fill="currentcolor" xmlns="http://www.w3.org/2000/svg" xmlns:xlink="http://www.w3.org/1999/xlink" version="1.1" x="0px" y="0px" viewBox="0 0 40 40" enable-background="new 0 0 40 40" xml:space="preserve"><path d="M20,1.5C9.799,1.5,1.5,9.799,1.5,20S9.799,38.5,20,38.5S38.5,30.201,38.5,20S30.201,1.5,20,1.5z M13.5,20  c0-1.434,0.093-2.79,0.247-4.073c1.512,0.424,3.113,0.676,4.753,0.78v6.587c-1.64,0.104-3.241,0.356-4.753,0.78  C13.593,22.79,13.5,21.434,13.5,20z M21.5,4.999c1.709,1.085,3.333,3.936,4.245,7.954c-1.338,0.396-2.764,0.65-4.245,0.755V4.999z   M18.5,4.999v8.709c-1.478-0.105-2.902-0.366-4.243-0.765C15.169,8.931,16.792,6.084,18.5,4.999z M18.5,26.292v8.709  c-1.708-1.085-3.331-3.932-4.243-7.945C15.598,26.657,17.022,26.397,18.5,26.292z M21.5,35.001v-8.708  c1.48,0.105,2.907,0.358,4.245,0.755C24.833,31.065,23.209,33.916,21.5,35.001z M21.5,23.295v-6.59  c1.644-0.103,3.243-0.359,4.752-0.781C26.407,17.208,26.5,18.565,26.5,20s-0.093,2.792-0.248,4.076  C24.743,23.654,23.144,23.398,21.5,23.295z M29.135,14.868c1.581-0.709,3.026-1.587,4.252-2.645C34.722,14.513,35.5,17.165,35.5,20  s-0.778,5.487-2.113,7.776c-1.226-1.058-2.671-1.936-4.252-2.645C29.368,23.506,29.5,21.79,29.5,20S29.368,16.494,29.135,14.868z   M31.617,9.772c-0.888,0.804-1.917,1.502-3.067,2.08c-0.582-2.358-1.403-4.43-2.419-6.083C28.247,6.685,30.112,8.066,31.617,9.772z   M13.87,5.77c-1.016,1.653-1.838,3.726-2.42,6.084c-1.151-0.577-2.172-1.286-3.06-2.088C9.894,8.062,11.756,6.684,13.87,5.77z   M6.62,12.213c1.225,1.056,2.664,1.939,4.246,2.649C10.632,16.49,10.5,18.208,10.5,20s0.132,3.51,0.366,5.137  c-1.582,0.71-3.021,1.594-4.246,2.649C5.281,25.495,4.5,22.84,4.5,20S5.281,14.505,6.62,12.213z M8.39,30.234  c0.888-0.802,1.909-1.511,3.06-2.088c0.582,2.359,1.404,4.432,2.42,6.084C11.756,33.316,9.894,31.938,8.39,30.234z M26.13,34.23  c1.016-1.652,1.838-3.724,2.419-6.083c1.149,0.577,2.179,1.276,3.067,2.08C30.112,31.934,28.247,33.315,26.13,34.23z"></path></svg>
