<svg height='100px' width='100px'  fill="currentcolor" xmlns:dc="http://purl.org/dc/elements/1.1/" xmlns:cc="http://creativecommons.org/ns#" xmlns:rdf="http://www.w3.org/1999/02/22-rdf-syntax-ns#" xmlns:svg="http://www.w3.org/2000/svg" xmlns="http://www.w3.org/2000/svg" xmlns:sodipodi="http://sodipodi.sourceforge.net/DTD/sodipodi-0.dtd" xmlns:inkscape="http://www.inkscape.org/namespaces/inkscape" version="1.1" x="0px" y="0px" viewBox="0 0 100 100"><g transform="translate(0,-952.36218)"><path style="text-indent:0;text-transform:none;direction:ltr;block-progression:tb;baseline-shift:baseline;color:currentcolor;enable-background:accumulate;" d="m 30,959.36217 c -2.7527,0 -5,2.2473 -5,5 l 0,5 -13,0 c -1.6447,0 -3,1.3553 -3,3 l 0,70.00003 c 0,1.6447 1.3553,3 3,3 l 76,0 c 1.6447,0 3,-1.3553 3,-3 l 0,-70.00003 c 0,-1.6447 -1.3553,-3 -3,-3 l -13,0 0,-5 c 0,-2.7527 -2.2473,-5 -5,-5 -2.7527,0 -5,2.2473 -5,5 l 0,5 -30,0 0,-5 c 0,-2.7527 -2.2473,-5 -5,-5 z m 0,2 c 1.6793,0 3,1.3207 3,3 l 0,12 c 0,1.6793 -1.3207,3 -3,3 -1.6793,0 -3,-1.3207 -3,-3 l 0,-12 c 0,-1.6793 1.3207,-3 3,-3 z m 40,0 c 1.6793,0 3,1.3207 3,3 l 0,12 c 0,1.6793 -1.3207,3 -3,3 -1.6793,0 -3,-1.3207 -3,-3 l 0,-12 c 0,-1.6793 1.3207,-3 3,-3 z m -58,10 13,0 0,5 c 0,2.7527 2.2473,5 5,5 2.7527,0 5,-2.2473 5,-5 l 0,-5 30,0 0,5 c 0,2.7527 2.2473,5 5,5 2.7527,0 5,-2.2473 5,-5 l 0,-5 13,0 c 0.5713,0 1,0.4287 1,1 l 0,19.00002 -78,0 0,-19.00002 c 0,-0.5713 0.4287,-1 1,-1 z m -1,22.00002 78,0 0,49.00001 c 0,0.5713 -0.4287,1 -1,1 l -76,0 c -0.5713,0 -1,-0.4287 -1,-1 l 0,-49.00001 z m 42.875,10.00001 c -0.3966,0.051 -0.7469,0.3308 -0.8438,0.7188 l -8,28 c -0.139,0.5073 0.2115,1.111 0.7188,1.25 0.5073,0.139 1.0797,-0.2116 1.2188,-0.7188 l 8,-28 c 0.1939,-0.6389 -0.4323,-1.3413 -1.0938,-1.25 z M 39,1007.331 c -0.187,0 -0.3735,0.056 -0.5312,0.1562 l -16,10 c -0.6182,0.3629 -0.6387,1.3066 0,1.7188 l 16,10 c 0.4501,0.2823 1.1269,0.1392 1.4062,-0.3126 0.2794,-0.4519 0.11,-1.1298 -0.3438,-1.4062 l -14.625,-9.125 14.625,-9.1562 c 0.3925,-0.216 0.6222,-0.7253 0.5,-1.1563 -0.1221,-0.4309 -0.5837,-0.7407 -1.0312,-0.7187 z m 21.9688,0 c -0.4421,-0.01 -0.8549,0.3229 -0.9688,0.75 -0.1139,0.4271 0.082,0.9109 0.4688,1.125 l 14.625,9.1562 -14.625,9.125 c -0.4538,0.2764 -0.5919,0.9543 -0.3126,1.4062 0.2794,0.4519 0.9249,0.5949 1.375,0.3126 l 16,-10 c 0.6315,-0.3916 0.5924,-1.3662 0,-1.7188 l -16,-10 c -0.1666,-0.1061 -0.365,-0.1611 -0.5624,-0.1562 z" fill="currentcolor" fill-opacity="1" stroke="none" marker="none" visibility="visible" display="inline" overflow="visible"></path></g></svg>
