<?xml version="1.0" encoding="UTF-8"?>
<svg width="1200pt" height="1200pt" version="1.1" viewBox="0 0 1200 1200" xmlns="http://www.w3.org/2000/svg">
 <g fill-rule="evenodd">
  <path d="m630.32 162.58c-1.9922-1.9922-4.1758-3.793-6.5547-5.3555-1.0742-0.73047-2.25-1.2227-3.3672-1.8438-1.3281-0.73047-2.5898-1.5234-4.0039-2.1016-1.4375-0.59766-2.9141-0.94141-4.3945-1.3711-1.1992-0.34375-2.3555-0.8125-3.6016-1.0703-5.5469-1.0938-11.25-1.0938-16.797 0-1.2461 0.25781-2.4023 0.72656-3.6016 1.0703-1.4805 0.42969-2.957 0.77344-4.3945 1.3711-1.4141 0.57812-2.6758 1.3945-4.0273 2.1016-1.1133 0.62109-2.2695 1.1133-3.3438 1.8438-2.3555 1.5625-4.5625 3.3633-6.5547 5.3555l-342.84 342.84c-16.738 16.734-16.738 43.863 0 60.602 8.3555 8.3789 19.328 12.555 30.301 12.555 10.969 0 21.941-4.1758 30.297-12.555l269.7-269.7v860.83c0 23.656 19.199 42.855 42.855 42.855 23.68 0 42.855-19.199 42.855-42.855v-860.83l269.7 269.7c8.3555 8.3789 19.328 12.555 30.297 12.555 10.973 0 21.945-4.1758 30.301-12.555 16.738-16.738 16.738-43.867 0-60.602l-342.84-342.84"/>
  <path d="m257.14 85.715h685.71c23.66 0 42.859-19.199 42.859-42.859 0-23.676-19.199-42.855-42.859-42.855h-685.71c-23.66 0-42.859 19.18-42.859 42.855 0 23.66 19.199 42.859 42.859 42.859"/>
 </g>
</svg>
