<svg height='100px' width='100px'  fill="currentcolor" xmlns="http://www.w3.org/2000/svg" xmlns:xlink="http://www.w3.org/1999/xlink" xml:space="preserve" version="1.1" style="shape-rendering:geometricPrecision;text-rendering:geometricPrecision;image-rendering:optimizeQuality;" viewBox="0 0 1.262 1.262" x="0px" y="0px" fill-rule="evenodd" clip-rule="evenodd"><defs><style type="text/css">

    .fil0 {fill:currentcolor;fill-rule:nonzero}

  </style></defs><g><path class="fil0" d="M0.631 0c0.174,0 0.332,0.071 0.446,0.185 0.114,0.114 0.185,0.272 0.185,0.446 0,0.174 -0.071,0.332 -0.185,0.446 -0.114,0.114 -0.272,0.185 -0.446,0.185 -0.174,0 -0.332,-0.071 -0.446,-0.185 -0.114,-0.114 -0.185,-0.272 -0.185,-0.446 0,-0.174 0.071,-0.332 0.185,-0.446 0.114,-0.114 0.272,-0.185 0.446,-0.185zm0 0.516c0.063,0 0.115,0.052 0.115,0.115 0,0.063 -0.052,0.115 -0.115,0.115 -0.063,0 -0.115,-0.052 -0.115,-0.115 0,-0.063 0.052,-0.115 0.115,-0.115zm0 -0.258c0.103,0 0.196,0.042 0.264,0.109 0.067,0.068 0.109,0.161 0.109,0.264 0,0.103 -0.042,0.196 -0.109,0.264 -0.068,0.067 -0.161,0.109 -0.264,0.109 -0.103,0 -0.196,-0.042 -0.264,-0.109 -0.067,-0.068 -0.109,-0.161 -0.109,-0.264 0,-0.103 0.042,-0.196 0.109,-0.264 0.068,-0.067 0.161,-0.109 0.264,-0.109zm0.182 0.19c-0.046,-0.046 -0.111,-0.075 -0.182,-0.075 -0.071,0 -0.136,0.029 -0.183,0.075 -0.046,0.047 -0.075,0.112 -0.075,0.183 0,0.071 0.029,0.136 0.075,0.182 0.047,0.047 0.112,0.076 0.183,0.076 0.071,0 0.136,-0.029 0.182,-0.076 0.047,-0.046 0.076,-0.111 0.076,-0.182 0,-0.071 -0.029,-0.136 -0.076,-0.183zm0.183 -0.182c-0.093,-0.094 -0.223,-0.151 -0.365,-0.151 -0.143,0 -0.272,0.057 -0.365,0.151 -0.094,0.093 -0.151,0.222 -0.151,0.365 0,0.142 0.057,0.272 0.151,0.365 0.093,0.093 0.222,0.151 0.365,0.151 0.142,0 0.272,-0.058 0.365,-0.151 0.093,-0.093 0.151,-0.223 0.151,-0.365 0,-0.143 -0.058,-0.272 -0.151,-0.365z"></path></g></svg>
