<svg height='100px' width='100px'  fill="currentcolor" xmlns:dc="http://purl.org/dc/elements/1.1/" xmlns:cc="http://creativecommons.org/ns#" xmlns:rdf="http://www.w3.org/1999/02/22-rdf-syntax-ns#" xmlns:svg="http://www.w3.org/2000/svg" xmlns="http://www.w3.org/2000/svg" xmlns:sodipodi="http://sodipodi.sourceforge.net/DTD/sodipodi-0.dtd" xmlns:inkscape="http://www.inkscape.org/namespaces/inkscape" viewBox="0 0 26.458333 26.458334" version="1.1" x="0px" y="0px"><g transform="translate(0,-270.54165)"><path d="m 8.1979511,273.98124 c -0.1459257,0.003 -0.2624535,0.12229 -0.2604506,0.26821 v 13.11495 l -3.5145133,-3.52124 c -0.049726,-0.0514 -0.1181391,-0.0805 -0.1896534,-0.0806 -0.2374423,5e-5 -0.3546448,0.28863 -0.184486,0.45423 l 3.9661677,3.97394 c 0.1033277,0.10329 0.270809,0.10329 0.3741367,0 l 3.9661668,-3.97394 c 0.270897,-0.24921 -0.125309,-0.64487 -0.374139,-0.37362 l -3.5145128,3.52124 v -13.11495 c 0.00212,-0.14917 -0.1195546,-0.27054 -0.2687161,-0.26821 z m 6.8832989,0 c -0.146119,3e-5 -0.264567,0.11846 -0.264583,0.26459 v 3.175 c 1.6e-5,0.14613 0.118464,0.26455 0.264583,0.26458 h 9.525 c 0.146119,-3e-5 0.264568,-0.11845 0.264583,-0.26458 v -3.175 c -1.5e-5,-0.14613 -0.118464,-0.26456 -0.264583,-0.26459 z m 0.264583,0.52917 h 8.995834 v 2.64583 h -8.995834 z m -0.264583,4.7625 c -0.146119,3e-5 -0.264567,0.11845 -0.264583,0.26458 v 3.175 c 1.6e-5,0.14613 0.118464,0.26456 0.264583,0.26459 h 9.525 c 0.146119,-3e-5 0.264568,-0.11846 0.264583,-0.26459 v -3.175 c -1.5e-5,-0.14613 -0.118464,-0.26455 -0.264583,-0.26458 z m 0.264583,0.52917 h 8.995834 v 2.64583 h -8.995834 z m -0.264583,4.7625 c -0.146119,2e-5 -0.264567,0.11845 -0.264583,0.26458 v 3.175 c 1.6e-5,0.14613 0.118464,0.26456 0.264583,0.26458 h 9.525 c 0.146119,-2e-5 0.264568,-0.11845 0.264583,-0.26458 v -3.175 c -1.5e-5,-0.14613 -0.118464,-0.26456 -0.264583,-0.26458 z m 0.264583,0.52916 h 8.995834 v 2.64584 h -8.995834 z m -13.4937492,4.7625 c -0.1461188,3e-5 -0.2645675,0.11846 -0.2645833,0.26459 v 3.175 c 1.58e-5,0.14613 0.1184645,0.26455 0.2645833,0.26458 H 24.60625 c 0.146119,-3e-5 0.264568,-0.11845 0.264583,-0.26458 v -3.175 c -1.5e-5,-0.14613 -0.118464,-0.26456 -0.264583,-0.26459 z" style="color:currentcolor;font-style:normal;font-variant:normal;font-weight:normal;font-stretch:normal;font-size:medium;line-height:normal;font-family:sans-serif;font-variant-ligatures:normal;font-variant-position:normal;font-variant-caps:normal;font-variant-numeric:normal;font-variant-alternates:normal;font-feature-settings:normal;text-indent:0;text-align:start;text-decoration:none;text-decoration-line:none;text-decoration-style:solid;text-decoration-color:currentcolor;letter-spacing:normal;word-spacing:normal;text-transform:none;writing-mode:lr-tb;direction:ltr;text-orientation:mixed;dominant-baseline:auto;baseline-shift:baseline;text-anchor:start;white-space:normal;shape-padding:0;clip-rule:nonzero;display:inline;overflow:visible;visibility:visible;opacity:1;isolation:auto;mix-blend-mode:normal;color-interpolation:sRGB;color-interpolation-filters:linearRGB;solid-color:currentcolor;solid-opacity:1;vector-effect:none;fill:currentcolor;fill-opacity:1;fill-rule:evenodd;stroke:none;stroke-width:0.5291667;stroke-linecap:round;stroke-linejoin:round;stroke-miterlimit:4;stroke-dasharray:none;stroke-dashoffset:0;stroke-opacity:1;paint-order:normal;color-rendering:auto;image-rendering:auto;shape-rendering:auto;text-rendering:auto;enable-background:accumulate"></path></g></svg>
