<svg height='100px' width='100px'  fill="currentcolor" xmlns="http://www.w3.org/2000/svg" xmlns:xlink="http://www.w3.org/1999/xlink" version="1.1" x="0px" y="0px" viewBox="0 0 128 128" style="enable-background:new 0 0 128 128;" xml:space="preserve"><g><path d="M64,125.9C64,125.9,64,125.9,64,125.9c-2.7,0-5.3-1.5-7.1-4l-2.1-3C44.9,105,35,91.1,25.1,77.1c-5.6-7.9-8.7-17-8.7-25.6   c0-24.5,16-44.4,38.9-48.6c12.5-2.3,25.1,0.4,35.6,7.6c10.5,7.2,17.6,18,19.8,30.5c2.4,13.1-0.3,25.2-7.9,36.2   c-7.5,10.7-15.1,21.3-22.6,31.9l-9.1,12.9C69.3,124.4,66.7,125.9,64,125.9z M63.1,116.5L63.1,116.5L63.1,116.5z M64,11.7   c-2.3,0-4.6,0.2-7,0.6c-18.2,3.4-31,19.5-31,39.2c0.1,6.5,2.6,13.9,7,20.1c9.8,13.9,19.7,27.8,29.6,41.8l1.4,2l8.4-11.8   C79.9,92.9,87.5,82.3,95,71.6c6.1-8.7,8.3-18.5,6.3-28.9v0c-1.8-9.9-7.5-18.6-15.8-24.3C79,14,71.6,11.7,64,11.7z"></path><path d="M86.4,50.7c0-12.3-10-22.4-22.4-22.4c-12.3,0-22.4,10-22.4,22.4c0,10.9,7.8,20,18.1,22l-2.2,12.5c-0.1,0.5-0.1,1.1,0,1.7   c0.5,3.6,3.7,6.1,7.3,5.6c3.6-0.5,6.1-3.7,5.6-7.3l-2.1-12.5C78.6,70.7,86.4,61.6,86.4,50.7z M67.6,67.7c-1.2,0.2-2.4,0.4-3.6,0.4   s-2.5-0.1-3.6-0.4c-7.8-1.7-13.8-8.7-13.8-17c0-9.6,7.8-17.4,17.4-17.4c9.6,0,17.4,7.8,17.4,17.4C81.4,59.1,75.5,66,67.6,67.7z"></path></g></svg>
