<svg height='100px' width='100px'  fill="currentcolor" xmlns="http://www.w3.org/2000/svg" data-name="Layer 1" viewBox="0 0 100 100" x="0px" y="0px"><title>A</title><path d="M50.75775,12.57959l-12.991,12.99414a25.90693,25.90693,0,0,0,5.55542,40.87738l5.46167-5.46338a6.86134,6.86134,0,0,0,1.993-4.21777,13.92378,13.92378,0,0,1-4.52356-22.70868L59.2442,21.0672A13.91582,13.91582,0,0,1,78.92365,40.74762l-4.08356,4.08392A32.93879,32.93879,0,0,1,76.813,56.09778a33.44242,33.44242,0,0,1-.24652,3.981L87.40912,49.23517A25.91792,25.91792,0,1,0,50.75775,12.57959Z"></path><path d="M56.66614,33.54889l-5.462,5.46338a6.858,6.858,0,0,0-1.993,4.21728,13.92378,13.92378,0,0,1,4.52356,22.70868l-12.991,12.99506a13.91649,13.91649,0,0,1-19.67944,0h.001a13.93467,13.93467,0,0,1-.001-19.6814l4.08356-4.084a32.93924,32.93924,0,0,1-1.9729-11.26666,33.45717,33.45717,0,0,1,.2464-3.98047L12.5788,50.76434a25.95158,25.95158,0,0,0-.001,36.65558h.001a25.94222,25.94222,0,0,0,36.65136,0l12.991-12.99414a25.90612,25.90612,0,0,0-5.55505-40.87689Z"></path></svg>
