<svg height='100px' width='100px'  fill="currentcolor" xmlns:dc="http://purl.org/dc/elements/1.1/" xmlns:cc="http://creativecommons.org/ns#" xmlns:rdf="http://www.w3.org/1999/02/22-rdf-syntax-ns#" xmlns:svg="http://www.w3.org/2000/svg" xmlns="http://www.w3.org/2000/svg" xmlns:sodipodi="http://sodipodi.sourceforge.net/DTD/sodipodi-0.dtd" xmlns:inkscape="http://www.inkscape.org/namespaces/inkscape" viewBox="0 0 16.933333 16.933334" version="1.1" x="0px" y="0px"><g transform="translate(0,-280.06665)"><path style="color:currentcolor;font-style:normal;font-variant:normal;font-weight:normal;font-stretch:normal;font-size:medium;line-height:normal;font-family:sans-serif;font-variant-ligatures:normal;font-variant-position:normal;font-variant-caps:normal;font-variant-numeric:normal;font-variant-alternates:normal;font-feature-settings:normal;text-indent:0;text-align:start;text-decoration:none;text-decoration-line:none;text-decoration-style:solid;text-decoration-color:currentcolor;letter-spacing:normal;word-spacing:normal;text-transform:none;writing-mode:lr-tb;direction:ltr;text-orientation:mixed;dominant-baseline:auto;baseline-shift:baseline;text-anchor:start;white-space:normal;shape-padding:0;clip-rule:nonzero;display:inline;overflow:visible;visibility:visible;opacity:1;isolation:auto;mix-blend-mode:normal;color-interpolation:sRGB;color-interpolation-filters:linearRGB;solid-color:currentcolor;solid-opacity:1;vector-effect:none;fill:currentcolor;fill-opacity:1;fill-rule:nonzero;stroke:none;stroke-width:0.5291667;stroke-linecap:round;stroke-linejoin:round;stroke-miterlimit:4;stroke-dasharray:none;stroke-dashoffset:0;stroke-opacity:1;paint-order:stroke fill markers;color-rendering:auto;image-rendering:auto;shape-rendering:auto;text-rendering:auto;enable-background:accumulate" d="m 14.039928,293.14747 c 0.453345,-0.16708 0.84478,-0.39758 1.127064,-0.7245 0.282284,-0.32691 0.443384,-0.75161 0.443384,-1.24437 0,-0.86412 0.0639,-1.58871 -0.05478,-2.16421 -0.100317,-0.3687 -0.172768,-0.5926 -0.49067,-0.80796 l -1.853374,-4.79531 c -0.03932,-0.10272 -0.138068,-0.1704 -0.248047,-0.17002 h -2.644283 c -0.3607863,-0.008 -0.3607863,0.53727 0,0.52917 h 2.464967 l 1.638144,4.24263 c -0.04468,-0.003 -0.08755,-0.008 -0.134361,-0.008 H 2.9108915 c -0.1419278,0 -0.2705972,0.012 -0.3932581,0.03 l 1.6334925,-4.29328 h 2.4629004 c 0.3531209,0 0.3531209,-0.52968 0,-0.52968 H 3.9697434 c -0.1105032,-6e-5 -0.2094071,0.0686 -0.2480468,0.17208 l -1.8577692,4.88394 c -0.2467796,0.19606 -0.3905779,0.45575 -0.4630209,0.74104 -0.1504606,0.59256 -0.070279,1.3258 -0.070279,2.1916 0,0.49542 0.1651503,0.92047 0.4511358,1.24592 0.2859802,0.32545 0.6818497,0.55317 1.1389465,0.71675 0.9141989,0.32716 2.0936903,0.40825 3.3173697,0.40825 0.9478936,-0.007 1.4839659,-0.5831 1.7102323,-1.17978 0.2262637,-0.59667 0.1942597,-1.21243 0.2278909,-1.43764 0.033631,-0.2252 0.2184876,-0.29386 0.3167777,-0.293 0.09829,7.9e-4 0.2692585,0.0755 0.2966217,0.28318 0.027363,0.20767 0.00212,0.86113 0.2227263,1.45521 0.2205222,0.59407 0.7573593,1.16554 1.7218586,1.17203 1.225013,0 2.399054,-0.0896 3.305741,-0.42375 z m -7.2889613,-2.85564 c 0.1292067,-0.005 0.2430569,0.0842 0.2692348,0.21084 0.070861,0.31324 0.1201128,0.77784 -0.1539955,1.17409 -0.2023877,0.29257 -0.4860158,0.45162 -0.7250192,0.53692 -0.3392196,0.13384 -0.5250841,-0.38701 -0.1777682,-0.49816 0.1685925,-0.0602 0.3453156,-0.16338 0.4671562,-0.33951 0.1385782,-0.20033 0.1291379,-0.51185 0.073895,-0.75603 -0.040399,-0.16278 0.078901,-0.3216 0.2464969,-0.32815 z m 7.4078173,0 c 0.129395,-0.005 0.243541,0.084 0.269751,0.21084 0.07086,0.31324 0.119594,0.77784 -0.154512,1.17409 -0.20239,0.29257 -0.485499,0.45162 -0.724503,0.53692 -0.33922,0.13384 -0.525084,-0.38701 -0.177768,-0.49816 0.168592,-0.0602 0.344797,-0.16338 0.466638,-0.33951 0.13858,-0.20033 0.129656,-0.51185 0.07441,-0.75603 -0.04037,-0.16259 0.0786,-0.32129 0.24598,-0.32815 z"></path></g></svg>
