<svg height='100px' width='100px' fill="currentcolor" xmlns="http://www.w3.org/2000/svg" xmlns:xlink="http://www.w3.org/1999/xlink" version="1.1" x="0px" y="0px" viewBox="0 0 100 100" style="enable-background:new 0 0 100 100;" xml:space="preserve"><path d="M91.72,40.63c1.32,1.32,2.05,3.08,2.05,4.95s-0.73,3.63-2.05,4.95l-40.3,40.3c-0.39,0.39-0.9,0.59-1.41,0.59  s-1.02-0.2-1.41-0.59L8.28,50.53c-2.73-2.73-2.73-7.17,0-9.9c2.73-2.73,7.17-2.73,9.9,0L50,72.45l31.82-31.82  c1.32-1.32,3.08-2.05,4.95-2.05S90.4,39.31,91.72,40.63z M48.59,60.83c0.39,0.39,0.9,0.59,1.41,0.59s1.02-0.2,1.41-0.59l40.3-40.3  c1.32-1.32,2.05-3.08,2.05-4.95s-0.73-3.63-2.05-4.95c-1.32-1.32-3.08-2.05-4.95-2.05s-3.63,0.73-4.95,2.05L50,42.45L18.18,10.63  c-2.73-2.73-7.17-2.73-9.9,0c-2.73,2.73-2.73,7.17,0,9.9L48.59,60.83z"></path></svg>
