<svg height='100px' width='100px'  fill="currentcolor" xmlns:dc="http://purl.org/dc/elements/1.1/" xmlns:cc="http://creativecommons.org/ns#" xmlns:rdf="http://www.w3.org/1999/02/22-rdf-syntax-ns#" xmlns:svg="http://www.w3.org/2000/svg" xmlns="http://www.w3.org/2000/svg" xmlns:sodipodi="http://sodipodi.sourceforge.net/DTD/sodipodi-0.dtd" xmlns:inkscape="http://www.inkscape.org/namespaces/inkscape" version="1.1" x="0px" y="0px" viewBox="0 0 100 100"><g transform="translate(0,-952.36218)"><path style="text-indent:0;text-transform:none;direction:ltr;block-progression:tb;baseline-shift:baseline;color:currentcolor;enable-background:accumulate;" d="m 22,956.36218 c -3.2894,0 -6,2.71061 -6,6 l 0,80.00002 c 0,3.2894 2.7106,6 6,6 l 56,0 c 3.2894,0 6,-2.7106 6,-6 l 0,-80.00002 c 0,-3.28939 -2.7106,-6 -6,-6 z m 0,4 56,0 c 1.1426,0 2,0.85744 2,2 l 0,80.00002 c 0,1.1425 -0.8574,2 -2,2 l -56,0 c -1.1426,0 -2,-0.8575 -2,-2 l 0,-80.00002 c 0,-1.14256 0.8574,-2 2,-2 z m 8,13 c -1.1046,0 -2,0.8954 -2,2 0,1.1046 0.8954,2 2,2 l 40,0 c 1.1046,0 2,-0.8954 2,-2 0,-1.1046 -0.8954,-2 -2,-2 z m 0,18 c -1.1046,0 -2,0.8954 -2,2 0,1.1046 0.8954,2 2,2 l 40,0 c 1.1046,0 2,-0.8954 2,-2 0,-1.1046 -0.8954,-2 -2,-2 z m 0,18.00002 c -1.1046,0 -2,0.8954 -2,2 0,1.1046 0.8954,2 2,2 l 40,0 c 1.1046,0 2,-0.8954 2,-2 0,-1.1046 -0.8954,-2 -2,-2 z m 0,18 c -1.1046,0 -2,0.8954 -2,2 0,1.1046 0.8954,2 2,2 l 40,0 c 1.1046,0 2,-0.8954 2,-2 0,-1.1046 -0.8954,-2 -2,-2 z" fill="currentcolor" fill-opacity="1" stroke="none" marker="none" visibility="visible" display="inline" overflow="visible"></path></g></svg>
