<svg height='100px' width='100px'  fill="currentcolor" xmlns:dc="http://purl.org/dc/elements/1.1/" xmlns:cc="http://creativecommons.org/ns#" xmlns:rdf="http://www.w3.org/1999/02/22-rdf-syntax-ns#" xmlns:svg="http://www.w3.org/2000/svg" xmlns="http://www.w3.org/2000/svg" xmlns:sodipodi="http://sodipodi.sourceforge.net/DTD/sodipodi-0.dtd" xmlns:inkscape="http://www.inkscape.org/namespaces/inkscape" viewBox="0 0 26.458333 26.458334" version="1.1" x="0px" y="0px"><g transform="translate(0,-270.54165)"><path style="color:currentcolor;font-style:normal;font-variant:normal;font-weight:normal;font-stretch:normal;font-size:medium;line-height:normal;font-family:sans-serif;font-variant-ligatures:normal;font-variant-position:normal;font-variant-caps:normal;font-variant-numeric:normal;font-variant-alternates:normal;font-feature-settings:normal;text-indent:0;text-align:start;text-decoration:none;text-decoration-line:none;text-decoration-style:solid;text-decoration-color:currentcolor;letter-spacing:normal;word-spacing:normal;text-transform:none;writing-mode:lr-tb;direction:ltr;text-orientation:mixed;dominant-baseline:auto;baseline-shift:baseline;text-anchor:start;white-space:normal;shape-padding:0;clip-rule:nonzero;display:inline;overflow:visible;visibility:visible;opacity:1;isolation:auto;mix-blend-mode:normal;color-interpolation:sRGB;color-interpolation-filters:linearRGB;solid-color:currentcolor;solid-opacity:1;vector-effect:none;fill:currentcolor;fill-opacity:1;fill-rule:evenodd;stroke:none;stroke-width:0.5291667;stroke-linecap:round;stroke-linejoin:round;stroke-miterlimit:4;stroke-dasharray:none;stroke-dashoffset:0;stroke-opacity:1;paint-order:normal;color-rendering:auto;image-rendering:auto;shape-rendering:auto;text-rendering:auto;enable-background:accumulate" d="m 1.8520836,273.98123 c -0.1461188,3e-5 -0.2645674,0.11845 -0.2645833,0.26458 v 3.175 c 1.59e-5,0.14613 0.1184645,0.26456 0.2645833,0.26459 h 9.5249994 c 0.146119,-3e-5 0.264568,-0.11846 0.264584,-0.26459 v -3.175 c -1.6e-5,-0.14613 -0.118465,-0.26455 -0.264584,-0.26458 z m 0.2645836,0.52917 H 11.1125 v 2.64583 H 2.1166672 Z m -0.2645836,4.7625 c -0.1461188,2e-5 -0.2645674,0.11845 -0.2645833,0.26458 v 3.175 c 1.59e-5,0.14613 0.1184645,0.26456 0.2645833,0.26458 H 24.60625 c 0.146119,-2e-5 0.264569,-0.11845 0.264583,-0.26458 v -3.175 c -1.4e-5,-0.14613 -0.118464,-0.26456 -0.264583,-0.26458 z M 20.1073,284.13824 c -0.07082,0 -0.138575,0.029 -0.188102,0.0796 l -2.37815,2.4257 c -0.255972,0.25188 0.130866,0.63132 0.377755,0.37052 l 1.923914,-1.96215 c -0.0015,2.51841 -0.01989,4.42124 -0.258899,5.64616 -0.127491,0.65339 -0.317568,1.11225 -0.566374,1.39216 -0.248806,0.2799 -0.551732,0.41134 -1.025777,0.41134 -0.357802,-0.005 -0.357802,0.53422 0,0.52917 0.584288,0 1.075112,-0.19875 1.421618,-0.58859 0.346507,-0.38981 0.553305,-0.93967 0.690398,-1.64227 0.257116,-1.31773 0.267746,-3.22982 0.2682,-5.75056 l 1.925981,1.96474 c 0.246889,0.2608 0.633727,-0.11864 0.377755,-0.37052 l -2.37815,-2.4257 c -0.05003,-0.0511 -0.118631,-0.0798 -0.190169,-0.0796 z m -18.2552164,0.42632 c -0.1461188,3e-5 -0.2645674,0.11846 -0.2645833,0.26459 v 3.175 c 1.59e-5,0.14613 0.1184645,0.26455 0.2645833,0.26458 h 9.5249994 c 0.146119,-3e-5 0.264568,-0.11845 0.264584,-0.26458 v -3.175 c -1.6e-5,-0.14613 -0.118465,-0.26456 -0.264584,-0.26459 z m 0.2645836,0.52917 H 11.1125 v 2.64583 H 2.1166672 Z m -0.2645836,4.7625 c -0.1461188,3e-5 -0.2645674,0.11845 -0.2645833,0.26458 v 3.175 c 1.59e-5,0.14613 0.1184645,0.26456 0.2645833,0.26459 H 13.49375 c 0.146119,-3e-5 0.264569,-0.11846 0.264583,-0.26459 v -3.175 c -1.4e-5,-0.14613 -0.118464,-0.26455 -0.264583,-0.26458 z"></path></g></svg>
