<svg height='100px' width='100px'  fill="currentcolor" xmlns="http://www.w3.org/2000/svg" data-name="Layer 1" viewBox="0 0 24 24" x="0px" y="0px"><title>ff</title><path d="M19.838,6.26l-4.1-4.1A2.582,2.582,0,0,0,13.9,1.4H7A3.6,3.6,0,0,0,3.4,5V19A3.6,3.6,0,0,0,7,22.6H17A3.6,3.6,0,0,0,20.6,19V8.1A2.583,2.583,0,0,0,19.838,6.26ZM19.4,19A2.4,2.4,0,0,1,17,21.4H7A2.4,2.4,0,0,1,4.6,19V5A2.4,2.4,0,0,1,7,2.6h6.9a1.411,1.411,0,0,1,.99.41l4.1,4.1a1.4,1.4,0,0,1,.41.99Zm-3.8-6a.6.6,0,0,1-.6.6H9a.6.6,0,0,1,0-1.2h6A.6.6,0,0,1,15.6,13Z"></path></svg>
