<svg height='100px' width='100px'  fill="currentcolor" xmlns="http://www.w3.org/2000/svg" xmlns:xlink="http://www.w3.org/1999/xlink" viewBox="0 0 60 60" version="1.1" x="0px" y="0px"><title>Icon / blue / save</title><desc>Created with Sketch.</desc><g stroke="none" stroke-width="1" fill="none" fill-rule="evenodd"><path d="M39.3431458,6.5 C40.8018364,6.5 42.200783,7.07946262 43.232233,8.1109127 L51.8890873,16.767767 C52.9205374,17.799217 53.5,19.1981636 53.5,20.6568542 L53.5,48 C53.5,51.0375661 51.0375661,53.5 48,53.5 L12,53.5 C8.96243388,53.5 6.5,51.0375661 6.5,48 L6.5,12 C6.5,8.96243388 8.96243388,6.5 12,6.5 L39.3431458,6.5 Z M39.3431458,9.5 L37.5,9.499 L37.5,15 C37.5,17.4852814 35.4852814,19.5 33,19.5 L17.5,19.5 C15.0147186,19.5 13,17.4852814 13,15 L13,9.499 L12,9.5 C10.6192881,9.5 9.5,10.6192881 9.5,12 L9.5,48 C9.5,49.3807119 10.6192881,50.5 12,50.5 L48,50.5 C49.3807119,50.5 50.5,49.3807119 50.5,48 L50.5,20.6568542 C50.5,19.993813 50.2366079,19.3579282 49.767767,18.8890873 L41.1109127,10.232233 C40.6420718,9.7633921 40.006187,9.5 39.3431458,9.5 Z M30,25.5 C35.2467051,25.5 39.5,29.7532949 39.5,35 C39.5,40.2467051 35.2467051,44.5 30,44.5 C24.7532949,44.5 20.5,40.2467051 20.5,35 C20.5,29.7532949 24.7532949,25.5 30,25.5 Z M30,28.5 C26.4101491,28.5 23.5,31.4101491 23.5,35 C23.5,38.5898509 26.4101491,41.5 30,41.5 C33.5898509,41.5 36.5,38.5898509 36.5,35 C36.5,31.4101491 33.5898509,28.5 30,28.5 Z M34.5,9.499 L16,9.499 L16,15 C16,15.8284271 16.6715729,16.5 17.5,16.5 L33,16.5 C33.8284271,16.5 34.5,15.8284271 34.5,15 L34.5,9.499 Z" fill="currentcolor" fill-rule="nonzero"></path></g></svg>
