<svg height='100px' width='100px'  fill="currentcolor" xmlns="http://www.w3.org/2000/svg" xmlns:xlink="http://www.w3.org/1999/xlink" version="1.1" x="0px" y="0px" viewBox="0 0 100 100" enable-background="new 0 0 100 100" xml:space="preserve"><path fill="currentcolor" d="M48.941,34.883v-5.722c0-1.049-0.858-1.907-1.907-1.907H18.621c-1.049,0-1.907,0.858-1.907,1.907v5.722  c0,1.049,0.858,1.907,1.907,1.907h28.413C48.083,36.79,48.941,35.932,48.941,34.883z M18.621,29.161h28.413v5.722H18.621V29.161z   M55.873,75.208H9.783V21.291h46.09v18.375h4.768V18.431c0-1.049-0.858-1.907-1.907-1.907H6.921c-1.049,0-1.907,0.858-1.907,1.907  v59.639c0,1.049,0.858,1.907,1.907,1.907h51.812c1.049,0,1.907-0.858,1.907-1.907V56.833h-4.768V75.208z M87.714,48.25l6.743-6.743  c0.742-0.742,0.742-1.956,0-2.697l-2.697-2.697c-0.742-0.742-1.956-0.742-2.697,0l-6.743,6.743l-6.743-6.743  c-0.742-0.742-1.956-0.742-2.697,0l-2.697,2.697c-0.742,0.742-0.742,1.956,0,2.697l6.743,6.743l-6.743,6.743  c-0.742,0.742-0.742,1.956,0,2.697l2.697,2.697c0.742,0.742,1.956,0.742,2.697,0l6.743-6.743l6.743,6.743  c0.742,0.742,1.956,0.742,2.697,0l2.697-2.697c0.742-0.742,0.742-1.956,0-2.697L87.714,48.25z M66.215,43.482H29.761  c-0.99,0-1.8,0.81-1.8,1.8v5.937c0,0.99,0.81,1.8,1.8,1.8h36.454c0.99,0,1.8-0.81,1.8-1.8v-5.937  C68.015,44.292,67.205,43.482,66.215,43.482z M16.714,61.617v5.722c0,1.049,0.858,1.907,1.907,1.907h28.413  c1.049,0,1.907-0.858,1.907-1.907v-5.722c0-1.049-0.858-1.907-1.907-1.907H18.621C17.572,59.709,16.714,60.568,16.714,61.617z   M18.621,61.616h28.413v5.722H18.621V61.616z"></path></svg>
