<?xml version="1.0" encoding="UTF-8"?>
<svg width="1200pt" height="1200pt" version="1.1" viewBox="0 0 1200 1200" xmlns="http://www.w3.org/2000/svg">
 <g fill-rule="evenodd">
  <path d="m569.68 1037.4c1.9922 1.9922 4.1992 3.793 6.5547 5.3555 1.0508 0.70703 2.207 1.2031 3.3242 1.8008 1.3281 0.73047 2.6328 1.543 4.0469 2.1445 1.4141 0.57812 2.8945 0.92188 4.3516 1.3477 1.2227 0.36719 2.3789 0.83594 3.6445 1.0742 2.7852 0.55469 5.5898 0.85547 8.3984 0.85547s5.6133-0.30078 8.3984-0.85547c1.2656-0.23828 2.4219-0.70703 3.6445-1.0742 1.457-0.42578 2.9375-0.76953 4.3516-1.3477 1.4141-0.60156 2.7188-1.4141 4.0703-2.1445 1.0938-0.59766 2.25-1.0938 3.3008-1.8008 2.3555-1.5625 4.5625-3.3633 6.5547-5.3555l342.84-342.84c16.738-16.734 16.738-43.863 0-60.602-16.715-16.734-43.887-16.734-60.598 0l-269.7 269.7v-860.83c0-23.676-19.176-42.855-42.855-42.855-23.656 0-42.855 19.18-42.855 42.855v860.83l-269.7-269.7c-16.711-16.734-43.883-16.734-60.598 0-16.738 16.738-16.738 43.867 0 60.602l342.84 342.84"/>
  <path d="m942.86 1114.3h-685.71c-23.66 0-42.859 19.18-42.859 42.859 0 23.656 19.199 42.855 42.859 42.855h685.71c23.66 0 42.859-19.199 42.859-42.855 0-23.68-19.199-42.859-42.859-42.859"/>
 </g>
</svg>
