<svg fill="currentcolor" viewBox="0 0 100 100" xmlns="http://www.w3.org/2000/svg">
<path style="text-indent:0;text-transform:none;direction:ltr;block-progression:tb;baseline-shift:baseline;color:currentcolor;enable-background:accumulate" d="M22 956.362c-3.29 0-6 2.71-6 6v80c0 3.29 2.71 6 6 6h56c3.29 0 6-2.71 6-6v-80c0-3.29-2.71-6-6-6zm0 4h56c1.143 0 2 .858 2 2v80c0 1.143-.857 2-2 2H22c-1.143 0-2-.857-2-2v-80c0-1.142.857-2 2-2zm8 13a2 2 0 1 0 0 4h40a2 2 0 1 0 0-4zm0 18a2 2 0 1 0 0 4h40a2 2 0 1 0 0-4zm0 18a2 2 0 1 0 0 4h40a2 2 0 1 0 0-4zm0 18a2 2 0 1 0 0 4h40a2 2 0 1 0 0-4z" overflow="visible" transform="translate(0 -952.362)"/>
</svg>
