<svg fill="currentcolor" viewBox="0 0 1200 1200" xmlns="http://www.w3.org/2000/svg">
<path d="M1125 112.5v975c0 20.738-16.801 37.5-37.5 37.5H600c-20.699 0-37.5-16.762-37.5-37.5v-150c0-20.738 16.801-37.5 37.5-37.5h300V300H600c-20.699 0-37.5-16.801-37.5-37.5v-150c0-20.699 16.801-37.5 37.5-37.5h487.5c20.699 0 37.5 16.801 37.5 37.5z"/>
<path d="M562.5 712.5h-450C91.801 712.5 75 695.738 75 675V525c0-20.699 16.801-37.5 37.5-37.5h450v-75c0-15.148 9.148-28.836 23.137-34.648 14.023-5.813 30.148-2.625 40.875 8.137l187.5 187.5c14.664 14.664 14.664 38.363 0 53.023l-187.5 187.5A37.501 37.501 0 0 1 600 825c-4.836 0-9.71-.899-14.363-2.852-13.988-5.773-23.137-19.5-23.137-34.648z"/>
</svg>
