<svg fill="currentcolor" viewBox="0 0 24 24" xmlns="http://www.w3.org/2000/svg">
<path d="m14.545 11.3-1.7 1.7 1.7 1.7a.6.6 0 1 1-.848.849l-1.7-1.7-1.7 1.7a.6.6 0 0 1-.848-.849l1.7-1.7-1.7-1.7a.6.6 0 0 1 .848-.849l1.7 1.7 1.7-1.7a.6.6 0 0 1 .848.849ZM20.6 8.1V19a3.6 3.6 0 0 1-3.6 3.6H7A3.6 3.6 0 0 1 3.4 19V5A3.6 3.6 0 0 1 7 1.4h6.9a2.582 2.582 0 0 1 1.838.762l4.1 4.1A2.583 2.583 0 0 1 20.6 8.1Zm-1.2 0a1.4 1.4 0 0 0-.41-.99l-4.1-4.1a1.411 1.411 0 0 0-.99-.41H7A2.4 2.4 0 0 0 4.6 5v14A2.4 2.4 0 0 0 7 21.4h10a2.4 2.4 0 0 0 2.4-2.4Z"/>
</svg>
