<svg fill="currentcolor" viewBox="0 0 1200 1200" xmlns="http://www.w3.org/2000/svg">
<path d="M1125 112.5v975c0 20.738-16.762 37.5-37.5 37.5H600c-20.738 0-37.5-16.762-37.5-37.5v-150c0-20.738 16.762-37.5 37.5-37.5h300V300H600c-20.738 0-37.5-16.801-37.5-37.5v-150c0-20.699 16.762-37.5 37.5-37.5h487.5c20.738 0 37.5 16.801 37.5 37.5z"/>
<path d="M787.5 712.5h-450v75c0 15.148-9.113 28.875-23.137 34.648C309.711 824.101 304.836 825 300 825a37.502 37.502 0 0 1-26.512-10.988l-187.5-187.5c-14.664-14.664-14.664-38.363 0-53.023l187.5-187.5c10.727-10.762 26.852-13.95 40.875-8.137 14.023 5.812 23.137 19.5 23.137 34.648v75h450c20.738 0 37.5 16.8 37.5 37.5v150c0 20.738-16.762 37.5-37.5 37.5z"/>
</svg>
