<svg fill="currentcolor" viewBox="0 0 100 100" xmlns="http://www.w3.org/2000/svg">
<path style="text-indent:0;text-transform:none;direction:ltr;block-progression:tb;baseline-shift:baseline;color:currentcolor;enable-background:accumulate" d="M30 959.362c-2.753 0-5 2.247-5 5v5H12c-1.645 0-3 1.355-3 3v70c0 1.645 1.355 3 3 3h76c1.645 0 3-1.355 3-3v-70c0-1.645-1.355-3-3-3H75v-5c0-2.753-2.247-5-5-5s-5 2.247-5 5v5H35v-5c0-2.753-2.247-5-5-5zm0 2c1.68 0 3 1.32 3 3v12c0 1.68-1.32 3-3 3s-3-1.32-3-3v-12c0-1.68 1.32-3 3-3zm40 0c1.68 0 3 1.32 3 3v12c0 1.68-1.32 3-3 3s-3-1.32-3-3v-12c0-1.68 1.32-3 3-3zm-58 10h13v5c0 2.753 2.247 5 5 5s5-2.247 5-5v-5h30v5c0 2.753 2.247 5 5 5s5-2.247 5-5v-5h13c.571 0 1 .429 1 1v19H11v-19c0-.571.429-1 1-1zm-1 22h78v49c0 .571-.429 1-1 1H12c-.571 0-1-.429-1-1v-49zm28 13c-.244.01-.461.149-.656.344-.39.39-.55.844.03 1.437l10.22 10.22-10.313 10.28c-.363.36-.39 1.047 0 1.438.39.39 1.047.39 1.438 0L50 1019.8l10.281 10.281c.39.39 1.047.39 1.438 0 .39-.39.355-1.07 0-1.438l-10.313-10.28 10.219-10.22c.53-.611.422-1.046.031-1.437-.398-.432-.818-.474-1.437.031L50 1016.956l-10.219-10.219c-.267-.267-.537-.385-.781-.375z" overflow="visible" transform="translate(0 -952.362)"/>
</svg>
