<?xml version="1.0" encoding="UTF-8"?>
<svg fill="currentcolor" version="1.1" viewBox="0 0 512 512" xmlns="http://www.w3.org/2000/svg">
 <path d="m371.75 140.25c-6-6-15.719-6-21.719 0l-94.027 94.027-94.027-94.027c-6-6-15.719-6-21.719 0-6 5.9961-6 15.723 0 21.719l94.027 94.027-94.027 94.027c-6 5.9961-6 15.723 0 21.719 3 3 6.9336 4.5 10.859 4.5s7.8594-1.5 10.859-4.5l94.027-94.027 94.027 94.027c3 3 6.9336 4.5 10.859 4.5s7.8594-1.5 10.859-4.5c6-5.9961 6-15.723 0-21.719l-94.027-94.027 94.027-94.027c6.0039-5.9961 6.0039-15.73 0-21.719z"/>
</svg>
