<?xml version="1.0" encoding="UTF-8"?>
<svg fill="currentcolor" version="1.1" viewBox="0 0 512 512" xmlns="http://www.w3.org/2000/svg">
 <path d="m250.58 178.6v-29.297c0-5.3711-4.3945-9.7656-9.7656-9.7656h-145.47c-5.3711 0-9.7656 4.3945-9.7656 9.7656v29.297c0 5.3711 4.3945 9.7656 9.7656 9.7656h145.47c5.3711-0.003907 9.7656-4.3945 9.7656-9.7656zm-155.24-29.297h145.47v29.297h-145.47zm190.73 235.76h-235.98v-276.05h235.98v94.078h24.414l-0.003906-108.72c0-5.3711-4.3945-9.7656-9.7656-9.7656h-265.28c-5.3711 0-9.7656 4.3945-9.7656 9.7656v305.35c0 5.3711 4.3945 9.7656 9.7656 9.7656h265.28c5.3711 0 9.7656-4.3945 9.7656-9.7656v-108.73h-24.414l0.003906 94.082zm163.02-138.03 34.523-34.523c3.8008-3.8008 3.8008-10.016 0-13.809l-13.809-13.809c-3.8008-3.8008-10.016-3.8008-13.809 0l-34.523 34.523-34.523-34.523c-3.8008-3.8008-10.016-3.8008-13.809 0l-13.809 13.809c-3.8008 3.8008-3.8008 10.016 0 13.809l34.523 34.523-34.523 34.523c-3.8008 3.8008-3.8008 10.016 0 13.809l13.809 13.809c3.8008 3.8008 10.016 3.8008 13.809 0l34.523-34.523 34.523 34.523c3.8008 3.8008 10.016 3.8008 13.809 0l13.809-13.809c3.8008-3.8008 3.8008-10.016 0-13.809zm-110.07-24.41h-186.64c-5.0703 0-9.2148 4.1484-9.2148 9.2148v30.398c0 5.0703 4.1484 9.2148 9.2148 9.2148h186.64c5.0703 0 9.2148-4.1484 9.2148-9.2148v-30.398c0.003906-5.0703-4.1445-9.2148-9.2148-9.2148zm-253.45 92.852v29.297c0 5.3711 4.3945 9.7656 9.7656 9.7656h145.47c5.3711 0 9.7656-4.3945 9.7656-9.7656v-29.297c0-5.3711-4.3945-9.7656-9.7656-9.7656h-145.47c-5.3711-0.003906-9.7656 4.3945-9.7656 9.7656zm9.7656-0.007813h145.47v29.297h-145.47z"/>
</svg>
