<svg fill="currentcolor" viewBox="0 0 100 100" xmlns="http://www.w3.org/2000/svg">
<path style="text-indent:0;text-transform:none;direction:ltr;block-progression:tb;baseline-shift:baseline;color:currentcolor;enable-background:accumulate" d="M30 959.362c-2.753 0-5 2.247-5 5v5H12c-1.645 0-3 1.355-3 3v70c0 1.645 1.355 3 3 3h76c1.645 0 3-1.355 3-3v-70c0-1.645-1.355-3-3-3H75v-5c0-2.753-2.247-5-5-5s-5 2.247-5 5v5H35v-5c0-2.753-2.247-5-5-5zm0 2c1.68 0 3 1.32 3 3v12c0 1.68-1.32 3-3 3s-3-1.32-3-3v-12c0-1.68 1.32-3 3-3zm40 0c1.68 0 3 1.32 3 3v12c0 1.68-1.32 3-3 3s-3-1.32-3-3v-12c0-1.68 1.32-3 3-3zm-58 10h13v5c0 2.753 2.247 5 5 5s5-2.247 5-5v-5h30v5c0 2.753 2.247 5 5 5s5-2.247 5-5v-5h13c.571 0 1 .429 1 1v19H11v-19c0-.571.429-1 1-1zm-1 22h78v49c0 .571-.429 1-1 1H12c-.571 0-1-.429-1-1v-49zm35 9c-6.614 0-12 5.387-12 12 0 6.614 5.386 12 12 12 2.95 0 5.658-1.07 7.75-2.844l10.563 10.563a.997.997 0 0 0 1.406 0 .997.997 0 0 0 0-1.406l-10.563-10.563a11.955 11.955 0 0 0 2.844-7.75c0-6.613-5.386-12-12-12zm0 2c5.533 0 10 4.467 10 10s-4.467 10-10 10-10-4.467-10-10 4.467-10 10-10z" overflow="visible" transform="translate(0 -952.362)"/>
</svg>
