<svg fill="currentcolor" xml:space="preserve" viewBox="0 0 100 100" xmlns="http://www.w3.org/2000/svg">
<path d="M8.28 59.37c-1.32-1.32-2.05-3.08-2.05-4.95s.73-3.63 2.05-4.95l40.31-40.3c.78-.78 2.05-.78 2.83 0l40.3 40.31c1.32 1.32 2.05 3.08 2.05 4.95s-.73 3.63-2.05 4.95c-1.36 1.36-3.16 2.05-4.95 2.05s-3.58-.68-4.95-2.05L50 27.55 18.18 59.37a7.007 7.007 0 0 1-9.9 0zm43.13-20.2c-.78-.78-2.05-.78-2.83 0l-40.3 40.3c-1.32 1.32-2.05 3.08-2.05 4.95s.73 3.63 2.05 4.95a7.007 7.007 0 0 0 9.9 0L50 57.55l31.82 31.82c1.36 1.36 3.16 2.05 4.95 2.05s3.58-.68 4.95-2.05c1.32-1.32 2.05-3.08 2.05-4.95s-.73-3.63-2.05-4.95l-40.31-40.3z"/>
</svg>
