<svg fill="currentcolor" viewBox="0 0 100 100" xmlns="http://www.w3.org/2000/svg">
<path d="M50.758 12.58 37.767 25.574a25.907 25.907 0 0 0 5.555 40.877l5.462-5.463a6.861 6.861 0 0 0 1.993-4.218 13.924 13.924 0 0 1-4.524-22.709l12.991-12.994a13.916 13.916 0 0 1 19.68 19.68l-4.084 4.085a32.939 32.939 0 0 1 1.973 11.266 33.442 33.442 0 0 1-.247 3.98L87.41 49.236A25.918 25.918 0 1 0 50.758 12.58Z"/>
<path d="m56.666 33.549-5.462 5.463a6.858 6.858 0 0 0-1.993 4.218 13.924 13.924 0 0 1 4.524 22.708L40.744 78.933a13.916 13.916 0 0 1-19.68 0h.001a13.935 13.935 0 0 1 0-19.681l4.083-4.084A32.94 32.94 0 0 1 23.175 43.9a33.457 33.457 0 0 1 .246-3.98L12.58 50.764a25.952 25.952 0 0 0-.001 36.656 25.942 25.942 0 0 0 36.652 0l12.991-12.994a25.906 25.906 0 0 0-5.555-40.877Z"/>
</svg>
