<svg fill="currentcolor" viewBox="0 0 128 128" xml:space="preserve" xmlns="http://www.w3.org/2000/svg">
<path d="M64 125.9c-2.7 0-5.3-1.5-7.1-4l-2.1-3C44.9 105 35 91.1 25.1 77.1c-5.6-7.9-8.7-17-8.7-25.6 0-24.5 16-44.4 38.9-48.6 12.5-2.3 25.1.4 35.6 7.6 10.5 7.2 17.6 18 19.8 30.5 2.4 13.1-.3 25.2-7.9 36.2-7.5 10.7-15.1 21.3-22.6 31.9L71.1 122c-1.8 2.4-4.4 3.9-7.1 3.9zm-.9-9.4zM64 11.7c-2.3 0-4.6.2-7 .6-18.2 3.4-31 19.5-31 39.2.1 6.5 2.6 13.9 7 20.1 9.8 13.9 19.7 27.8 29.6 41.8l1.4 2 8.4-11.8c7.5-10.7 15.1-21.3 22.6-32 6.1-8.7 8.3-18.5 6.3-28.9-1.8-9.9-7.5-18.6-15.8-24.3C79 14 71.6 11.7 64 11.7z"/>
<path d="M86.4 50.7c0-12.3-10-22.4-22.4-22.4-12.3 0-22.4 10-22.4 22.4 0 10.9 7.8 20 18.1 22l-2.2 12.5c-.1.5-.1 1.1 0 1.7.5 3.6 3.7 6.1 7.3 5.6 3.6-.5 6.1-3.7 5.6-7.3l-2.1-12.5c10.3-2 18.1-11.1 18.1-22zm-18.8 17c-1.2.2-2.4.4-3.6.4s-2.5-.1-3.6-.4c-7.8-1.7-13.8-8.7-13.8-17 0-9.6 7.8-17.4 17.4-17.4 9.6 0 17.4 7.8 17.4 17.4 0 8.4-5.9 15.3-13.8 17z"/>
</svg>
