<svg fill="currentcolor" viewBox="-489 491 100 100" xml:space="preserve" xmlns="http://www.w3.org/2000/svg">
<path d="M-423.7 544.9h-11.5v-11.5c0-3.8 0-3.8-3.8-3.8-3.9 0-3.9 0-3.9 3.8v11.5h-11.5c-3.9 0-3.9 0-3.8 3.8-.1 3.8-.1 3.8 3.8 3.8h11.5V564c0 3.9 0 3.9 3.9 3.8 3.8 0 3.8 0 3.8-3.8v-11.5h11.5c3.8-.1 3.8-.1 3.8-3.8.1-3.8.1-3.8-3.8-3.8zm15.5 38.4h-61.5v-76.9h11.5v7.7h38.5v-7.7h11.5v76.9zm-30.8-88.5c1.9 0 3.8 1.9 3.8 3.8s-1.9 3.8-3.8 3.8-3.8-1.9-3.8-3.8c0-1.8 1.9-3.8 3.8-3.8zm34.6 3.9h-23.1v-3.8c0-3.8 0-3.8-3.8-3.8h-15.4c-3.8 0-3.8 0-3.8 3.8v3.8h-23.1c-3.8 0-3.8 0-3.8 3.8v84.6c0 3.8 0 3.8 3.8 3.8h69.2c3.8 0 3.8 0 3.8-3.8v-84.6c.1-3.8.1-3.8-3.8-3.8z"/>
</svg>
