<svg fill="currentcolor" viewBox="0 0 16.933 16.933" xmlns="http://www.w3.org/2000/svg">
<path style="color:currentcolor;font-style:normal;font-variant:normal;font-weight:400;font-stretch:normal;font-size:medium;line-height:normal;font-family:sans-serif;font-variant-ligatures:normal;font-variant-position:normal;font-variant-caps:normal;font-variant-numeric:normal;font-variant-alternates:normal;font-feature-settings:normal;text-indent:0;text-align:start;text-decoration:none;text-decoration-line:none;text-decoration-style:solid;text-decoration-color:currentcolor;letter-spacing:normal;word-spacing:normal;text-transform:none;writing-mode:lr-tb;direction:ltr;text-orientation:mixed;dominant-baseline:auto;baseline-shift:baseline;text-anchor:start;white-space:normal;shape-padding:0;clip-rule:nonzero;display:inline;overflow:visible;visibility:visible;opacity:1;isolation:auto;mix-blend-mode:normal;color-interpolation:sRGB;color-interpolation-filters:linearRGB;solid-color:currentcolor;solid-opacity:1;vector-effect:none;fill:currentcolor;fill-opacity:1;fill-rule:nonzero;stroke:none;stroke-width:.5291667;stroke-linecap:round;stroke-linejoin:round;stroke-miterlimit:4;stroke-dasharray:none;stroke-dashoffset:0;stroke-opacity:1;paint-order:stroke fill markers;color-rendering:auto;image-rendering:auto;shape-rendering:auto;text-rendering:auto;enable-background:accumulate" d="M14.04 293.147c.453-.167.845-.397 1.127-.724.282-.327.443-.752.443-1.244 0-.865.064-1.59-.054-2.165-.1-.368-.173-.592-.491-.808l-1.853-4.795a.265.265 0 0 0-.248-.17h-2.645c-.36-.008-.36.537 0 .53h2.465l1.638 4.242c-.044-.003-.087-.008-.134-.008H2.911c-.142 0-.27.012-.393.03l1.633-4.293h2.463c.353 0 .353-.53 0-.53H3.97c-.11 0-.21.069-.248.172l-1.858 4.884a1.34 1.34 0 0 0-.463.741c-.15.593-.07 1.326-.07 2.192 0 .495.165.92.45 1.246.287.325.683.553 1.14.716.914.327 2.093.409 3.317.409.948-.007 1.484-.584 1.71-1.18.227-.597.195-1.213.228-1.438a.327.327 0 0 1 .317-.293c.098 0 .27.076.297.283.027.208.002.861.222 1.455.22.595.758 1.166 1.722 1.173 1.225 0 2.4-.09 3.306-.424zm-7.289-2.855a.265.265 0 0 1 .27.21c.07.314.12.779-.155 1.175a1.467 1.467 0 0 1-.725.537c-.339.134-.525-.387-.178-.498a.938.938 0 0 0 .468-.34c.138-.2.129-.512.073-.756a.265.265 0 0 1 .247-.328zm7.408 0a.265.265 0 0 1 .27.21c.07.314.12.779-.155 1.175a1.466 1.466 0 0 1-.724.537c-.34.134-.526-.387-.178-.498a.937.937 0 0 0 .466-.34c.139-.2.13-.512.075-.756a.265.265 0 0 1 .246-.328z" transform="translate(0 -280.067)"/>
</svg>
