<svg fill="currentcolor" viewBox="0 0 68 58" xmlns="http://www.w3.org/2000/svg">
<path d="M9 29c0 13.807 11.193 25 25 25h1c.548 0 1 .452 1 1.01v1.98a.996.996 0 0 1-.994 1.01H34C17.984 58 5 45.016 5 29v-1.172l-1.88 1.88A1.003 1.003 0 0 1 1.7 29.7L.3 28.3c-.4-.4-.396-1.033-.002-1.426l5.288-5.288a2 2 0 0 1 2.828 0l5.288 5.288c.39.39.393 1.031-.002 1.426l-1.4 1.4c-.4.4-1.03.398-1.42.008L9 27.828V29Zm50 0C59 15.193 47.807 4 34 4h-.995A1.006 1.006 0 0 1 32 2.99V1.01c0-.567.447-1.01.999-1.01H34c16.016 0 29 12.984 29 29v1.172l1.88-1.88a1.003 1.003 0 0 1 1.42.008l1.4 1.4c.4.4.396 1.033.002 1.426l-5.288 5.288a2 2 0 0 1-2.828 0l-5.288-5.288A1.012 1.012 0 0 1 54.3 29.7l1.4-1.4a.999.999 0 0 1 1.42-.008l1.88 1.88V29Zm-37 0c0-6.628 5.372-12 12-12s12 5.372 12 12-5.372 12-12 12-12-5.372-12-12Z"/>
</svg>
