<svg fill="currentcolor" viewBox="0 0 128 128" xml:space="preserve" xmlns="http://www.w3.org/2000/svg">
<path d="M120.3 60.8h5v2h-5zM120.3 56.8h5v2h-5zM120.3 84.8h5v2h-5zM120.3 52.8h5v2h-5zM120.3 76.8h5v2h-5zM120.3 80.8h5v2h-5zM120.3 68.8h5v2h-5zM120.3 48.8h5v2h-5zM120.3 72.8h5v2h-5zM120.3 64.8h5v2h-5zM120.3 20.8h5v2h-5zM120.3 16.8h5v2h-5zM120.3 12.8h5v2h-5zM120.3 24.8h5v2h-5zM120.3 28.8h5v2h-5zM120.3 44.8h5v2h-5zM120.3 40.8h5v2h-5zM120.3 32.8h5v2h-5zM120.3 36.8h5v2h-5zM120.3 104.8h5v2h-5zM120.3 108.8h5v2h-5zM120.3 112.8h5v2h-5zM120.3 92.8h5v2h-5zM120.3 100.8h5v2h-5zM120.3 96.8h5v2h-5zM120.3 88.8h5v2h-5zM84.3 78.6h2v5h-2zM76.3 78.6h2v5h-2zM88.3 78.6h2v5h-2zM72.3 78.6h2v5h-2zM96.3 78.6h2v5h-2zM112.3 78.6h2v5h-2zM116.3 78.6h2v5h-2zM100.3 78.6h2v5h-2zM68.3 78.6h2v5h-2zM92.3 78.6h2v5h-2zM108.3 78.6h2v5h-2zM104.3 78.6h2v5h-2zM80.3 78.6h2v5h-2zM17.2 78.6h2v5h-2zM21.2 78.6h2v5h-2zM13.2 78.6h2v5h-2zM9.2 78.6h2v5h-2zM37.2 78.6h2v5h-2zM49.2 78.6h2v5h-2zM25.2 78.6h2v5h-2zM53.2 78.6h2v5h-2zM45.2 78.6h2v5h-2zM33.2 78.6h2v5h-2zM57.2 78.6h2v5h-2zM41.2 78.6h2v5h-2zM29.2 78.6h2v5h-2z"/>
<path d="M66.3 12.9H2.7v102.4h63.7V12.9zm-5 97.3H7.7V17.9h53.7v92.3zM84.3 45.6h2v5h-2zM116.3 45.6h2v5h-2zM68.3 45.6h2v5h-2zM92.3 45.6h2v5h-2zM100.3 45.6h2v5h-2zM96.3 45.6h2v5h-2zM88.3 45.6h2v5h-2zM72.3 45.6h2v5h-2zM76.3 45.6h2v5h-2zM112.3 45.6h2v5h-2zM108.3 45.6h2v5h-2zM80.3 45.6h2v5h-2zM104.3 45.6h2v5h-2z"/>
<path d="M45.2 45.6h2v5h-2zM17.2 45.6h2v5h-2zM57.2 45.6h2v5h-2zM13.2 45.6h2v5h-2zM49.2 45.6h2v5h-2zM53.2 45.6h2v5h-2zM29.2 45.6h2v5h-2zM25.2 45.6h2v5h-2zM33.2 45.6h2v5h-2zM41.2 45.6h2v5h-2zM37.2 45.6h2v5h-2zM21.2 45.6h2v5h-2zM9.2 45.6h2v5h-2zM92.3 110.2h2v5h-2zM72.3 110.2h2v5h-2zM104.3 110.2h2v5h-2zM84.3 110.2h2v5h-2zM112.3 110.2h2v5h-2zM108.3 110.2h2v5h-2zM68.3 110.2h2v5h-2zM80.3 110.2h2v5h-2zM76.3 110.2h2v5h-2zM100.3 110.2h2v5h-2zM88.3 110.2h2v5h-2zM116.3 110.2h2v5h-2zM96.3 110.2h2v5h-2zM88.3 12.9h2v5h-2zM112.3 12.9h2v5h-2zM96.3 12.9h2v5h-2zM92.3 12.9h2v5h-2zM116.3 12.9h2v5h-2zM68.3 12.9h2v5h-2zM108.3 12.9h2v5h-2zM100.3 12.9h2v5h-2zM80.3 12.9h2v5h-2zM104.3 12.9h2v5h-2zM84.3 12.9h2v5h-2zM76.3 12.9h2v5h-2zM72.3 12.9h2v5h-2z"/>
</svg>
