<?xml version="1.0" encoding="UTF-8"?>
<svg fill="currentcolor" version="1.1" viewBox="200 0 112 512" preserveAspectRatio="none" xmlns="http://www.w3.org/2000/svg">
 <g>
  <path d="m295.53 446.88c0 21.828-17.703 39.516-39.531 39.516-21.832 0-39.52-17.691-39.52-39.516 0-21.848 17.691-39.531 39.52-39.531 21.824 0.007813 39.531 17.691 39.531 39.531z"/>
  <path d="m310.3 78.156c-0.97656-11.234-5.3047-21.812-11.898-30.488-10.082-13.262-25.48-22.094-42.398-22.066-16.414-0.019531-31.395 8.2891-41.48 20.891-7.1172 8.8867-11.797 19.918-12.82 31.668-0.26953 3.1016-0.24219 6.4648 0 9.4805l22.48 257.5c0.67969 7.7734 4.0898 14.637 9.1953 19.746 5.8359 5.8438 13.887 9.3906 22.625 9.3789 7.8633 0.011719 15.172-2.8672 20.801-7.6953 6.1094-5.2344 10.254-12.781 11.012-21.438l22.48-257.5c0.25-3.0156 0.27734-6.375 0.003906-9.4766z"/>
 </g>
</svg>
