<svg fill="currentcolor" viewBox="0 0 24 24" xmlns="http://www.w3.org/2000/svg">
<path d="m19.838 6.26-4.1-4.1A2.582 2.582 0 0 0 13.9 1.4H7A3.6 3.6 0 0 0 3.4 5v14A3.6 3.6 0 0 0 7 22.6h10a3.6 3.6 0 0 0 3.6-3.6V8.1a2.583 2.583 0 0 0-.762-1.84ZM19.4 19a2.4 2.4 0 0 1-2.4 2.4H7A2.4 2.4 0 0 1 4.6 19V5A2.4 2.4 0 0 1 7 2.6h6.9a1.411 1.411 0 0 1 .99.41l4.1 4.1a1.4 1.4 0 0 1 .41.99Zm-3.8-6a.6.6 0 0 1-.6.6h-2.4V16a.6.6 0 0 1-1.2 0v-2.4H9a.6.6 0 0 1 0-1.2h2.4V10a.6.6 0 0 1 1.2 0v2.4H15a.6.6 0 0 1 .6.6Z"/>
</svg>
