<svg fill="currentcolor" xml:space="preserve" viewBox="0 0 100 100" xmlns="http://www.w3.org/2000/svg">
<path d="M50.7 23.2c-16.2 0-29.3 13.2-29.3 29.3 0 11.1 6.3 21.2 16.1 26.2v13.6c0 2.8 2.3 5.2 5.2 5.2h15.7c2.8 0 5.2-2.3 5.2-5.2V78.9c10-4.8 16.4-15 16.4-26.3 0-16.2-13.2-29.4-29.3-29.4zM58.3 93H42.6c-.4 0-.7-.3-.7-.7v-3.7h17v3.7c.1.4-.2.7-.6.7zm2.1-17.6c-.8.4-1.4 1.2-1.4 2.1v6.6H41.9v-6.8c0-.9-.5-1.7-1.3-2-9-4-14.8-12.9-14.8-22.7 0-13.7 11.1-24.8 24.8-24.8s24.8 11.1 24.8 24.8c.1 10-5.8 18.9-15 22.8z"/>
<path d="M48.9 33.5c-9.4 0-17 7.6-17 17 0 1.2 1 2.2 2.2 2.2s2.2-1 2.2-2.2C36.3 43.6 42 38 48.9 38c1.2 0 2.2-1 2.2-2.2s-1-2.3-2.2-2.3zM50.7 15c1.2 0 2.2-1 2.2-2.2v-8c0-1.2-1-2.2-2.2-2.2s-2.2 1-2.2 2.2v8c-.1 1.2.9 2.2 2.2 2.2zM11.1 47.9h-8c-1.2 0-2.2 1-2.2 2.2 0 1.2 1 2.2 2.2 2.2h8c1.2 0 2.2-1 2.2-2.2 0-1.2-1-2.2-2.2-2.2zM96.9 47.9h-8c-1.2 0-2.2 1-2.2 2.2 0 1.2 1 2.2 2.2 2.2h8c1.2 0 2.2-1 2.2-2.2.1-1.2-.9-2.2-2.2-2.2zM24.4 25.7c.9-.9.9-2.3 0-3.2l-5.6-5.6c-.9-.9-2.3-.9-3.2 0-.9.9-.9 2.3 0 3.2l5.6 5.6c.4.4 1 .7 1.6.7s1.1-.3 1.6-.7zM80.6 16.8 75 22.5c-.9.9-.9 2.3 0 3.2.4.4 1 .7 1.6.7.6 0 1.1-.2 1.6-.7l5.6-5.6c.9-.9.9-2.3 0-3.2-.9-.9-2.3-.9-3.2-.1z"/>
</svg>
