<?xml version="1.0" encoding="UTF-8"?>
<svg fill="currentcolor" version="1.1" viewBox="0 0 512 512" xmlns="http://www.w3.org/2000/svg">
 <path d="m475.23 458.12-398.22-398.22c-11.125-11.121-29.102-11.121-40.223 0-11.121 11.094-11.121 29.102 0 40.223l77 77v221.95c0 63.32 48.355 112.93 111.84 112.93 60.957 0 112.3-48.953 115.17-107.86l94.207 94.211c5.5469 5.5469 12.828 8.332 20.109 8.332s14.566-2.7852 20.109-8.332c11.125-11.121 11.125-29.129 0-40.223zm-190.77-59.051c0 30.379-26.938 56.035-60.559 56.035-30.324 0-53.223-24.09-53.223-56.035v-165.06l28.445 28.445v50.434c0 15.727 12.715 28.441 28.445 28.441 13.824 0 24.773-10.012 27.363-23.066l29.527 29.523zm-92.902-304.64c17.609-22.844 44.887-37.547 77.141-37.547 54.812 0 101.09 45.395 101.09 99.129v116.65l56.887 56.891v-173.54c0-84.566-72.332-156.02-160.54-156.02-47.73 0-90.395 22.641-118.33 57.969 5.2891 1.082 10.41 3.1602 14.535 7.2539zm149.79 149.79v-61.723c0-37.887-32.965-68.723-74.324-68.723-16.156 0-30.465 5.375-41.898 14.223l42.664 42.668h0.058594c7.8242 0 16.613 5.0625 16.613 11.832v4.8359z" fill-rule="evenodd"/>
</svg>
