<svg fill="currentcolor" viewBox="0 0 24 24" xmlns="http://www.w3.org/2000/svg">
<path d="m19.838 6.26-4.1-4.1A2.583 2.583 0 0 0 13.9 1.4H7A3.6 3.6 0 0 0 3.4 5v14A3.6 3.6 0 0 0 7 22.6h10a3.6 3.6 0 0 0 3.6-3.6V8.1a2.583 2.583 0 0 0-.762-1.84ZM19.4 19a2.4 2.4 0 0 1-2.4 2.4H7A2.4 2.4 0 0 1 4.6 19V5A2.4 2.4 0 0 1 7 2.6h6.9a1.391 1.391 0 0 1 .99.41l4.1 4.1a1.391 1.391 0 0 1 .41.99Zm-3.973-6.827a.6.6 0 0 1 0 .846L13.243 15.2a.6.6 0 0 1-.849-.848l1.169-1.169H9a.6.6 0 1 1 0-1.2h4.551l-1.159-1.172a.6.6 0 0 1 .854-.844Z"/>
</svg>
