<svg fill="currentcolor" viewBox="0 0 44 44" xml:space="preserve" xmlns="http://www.w3.org/2000/svg">
<path d="M37.51 13.907h-4.236a2.8 2.8 0 0 0-2.538 1.628l-.643 1.402V4.792A2.796 2.796 0 0 0 27.3 2H10.679a2.796 2.796 0 0 0-2.793 2.792v17.072H5.725a2.03 2.03 0 0 0-1.855 2.85l6.917 15.624c.003.007.01.009.013.015A2.792 2.792 0 0 0 13.34 42h24.17a2.796 2.796 0 0 0 2.794-2.793V16.699a2.796 2.796 0 0 0-2.793-2.792zM8.887 4.792C8.886 3.804 9.69 3 10.679 3h16.62c.99 0 1.794.804 1.794 1.792v13.182c-.22.094-.452.161-.7.161H13.34a2.796 2.796 0 0 0-2.792 2.793v8.267a1.79 1.79 0 0 1-1.662-1.78V4.793zm-4.19 19.1c0-.567.461-1.028 1.029-1.028h2.16v4.552a2.79 2.79 0 0 0 2.663 2.78v7.132L4.784 24.309a1.028 1.028 0 0 1-.088-.417zm34.608 15.315c0 .989-.805 1.793-1.793 1.793H13.34a1.794 1.794 0 0 1-1.792-1.793V20.928c0-.989.804-1.793 1.792-1.793h15.054c.496 0 .97-.138 1.384-.376.013-.005.022-.013.034-.018a2.78 2.78 0 0 0 1.119-1.234l.714-1.555a1.8 1.8 0 0 1 1.63-1.045h4.236c.988 0 1.793.804 1.793 1.792v22.508z"/>
<path d="M12.679 11.78h12.62a.5.5 0 1 0 0-1H12.68a.5.5 0 1 0 0 1zM12.679 15.86h12.62a.5.5 0 1 0 0-1H12.68a.5.5 0 1 0 0 1zM12.679 7.7h12.62a.5.5 0 1 0 0-1H12.68a.5.5 0 1 0 0 1z"/>
</svg>
