<svg fill="currentcolor" viewBox="0 0 512 512" xmlns="http://www.w3.org/2000/svg">
<g fill-rule="evenodd">
<path d="M268.94 69.367a17.905 17.905 0 0 0-2.797-2.285c-.457-.313-.96-.524-1.437-.79-.567-.308-1.106-.648-1.707-.894-.614-.254-1.247-.402-1.875-.586-.512-.144-1.008-.347-1.536-.457a18.617 18.617 0 0 0-7.171 0c-.528.11-1.024.313-1.536.457-.629.184-1.261.332-1.875.586-.601.246-1.14.594-1.718.895-.473.265-.97.476-1.426.789a18.272 18.272 0 0 0-2.797 2.285l-146.28 146.28c-7.14 7.14-7.14 18.715 0 25.855 3.566 3.574 8.246 5.355 12.93 5.355 4.68 0 9.363-1.78 12.926-5.355l115.07-115.07v367.29c0 10.094 8.191 18.285 18.285 18.285 10.102 0 18.285-8.191 18.285-18.285v-367.29l115.07 115.07c3.562 3.574 8.246 5.355 12.926 5.355a18.2 18.2 0 0 0 12.93-5.355c7.14-7.14 7.14-18.715 0-25.855l-146.28-146.28M109.71 36.57h292.57c10.094 0 18.285-8.191 18.285-18.285C420.565 8.183 412.374 0 402.28 0H109.71C99.616 0 91.425 8.184 91.425 18.285c0 10.094 8.191 18.285 18.285 18.285"/>
</g>
</svg>
