<svg fill="currentcolor" viewBox="0 0 60 60" xmlns="http://www.w3.org/2000/svg">
<path d="M39.343 6.5a5.5 5.5 0 0 1 3.89 1.61l8.656 8.658a5.5 5.5 0 0 1 1.611 3.889V48a5.5 5.5 0 0 1-5.5 5.5H12A5.5 5.5 0 0 1 6.5 48V12A5.5 5.5 0 0 1 12 6.5h27.343Zm0 3L37.5 9.499V15a4.5 4.5 0 0 1-4.5 4.5H17.5A4.5 4.5 0 0 1 13 15V9.499L12 9.5A2.5 2.5 0 0 0 9.5 12v36a2.5 2.5 0 0 0 2.5 2.5h36a2.5 2.5 0 0 0 2.5-2.5V20.657a2.5 2.5 0 0 0-.732-1.768l-8.657-8.657a2.5 2.5 0 0 0-1.768-.732ZM30 25.5a9.5 9.5 0 1 1 0 19 9.5 9.5 0 0 1 0-19Zm0 3a6.5 6.5 0 1 0 0 13 6.5 6.5 0 0 0 0-13Zm4.5-19.001H16V15a1.5 1.5 0 0 0 1.5 1.5H33a1.5 1.5 0 0 0 1.5-1.5V9.499Z" fill="currentcolor" fill-rule="nonzero"/>
</svg>
