<svg fill="currentcolor" xml:space="preserve" viewBox="0 0 100 100" xmlns="http://www.w3.org/2000/svg">
<path d="M25 40H10c-1.4 0-2.5 1.1-2.5 2.5v15c0 1.4 1.1 2.5 2.5 2.5h15c1.4 0 2.5-1.1 2.5-2.5v-15c0-1.4-1.1-2.5-2.5-2.5zm-2.5 15h-10V45h10v10zM25 10H10c-1.4 0-2.5 1.1-2.5 2.5v15c0 1.4 1.1 2.5 2.5 2.5h15c1.4 0 2.5-1.1 2.5-2.5v-15c0-1.4-1.1-2.5-2.5-2.5zm-2.5 15h-10V15h10v10zM25 70H10c-1.4 0-2.5 1.1-2.5 2.5v15c0 1.4 1.1 2.5 2.5 2.5h15c1.4 0 2.5-1.1 2.5-2.5v-15c0-1.4-1.1-2.5-2.5-2.5zm-2.5 15h-10V75h10v10zM57.5 17.5H35c-1.4 0-2.5 1.1-2.5 2.5s1.1 2.5 2.5 2.5h22.5c1.4 0 2.5-1.1 2.5-2.5s-1.1-2.5-2.5-2.5zM57.5 47.5H35c-1.4 0-2.5 1.1-2.5 2.5s1.1 2.5 2.5 2.5h22.5c1.4 0 2.5-1.1 2.5-2.5s-1.1-2.5-2.5-2.5zM57.5 77.5H35c-1.4 0-2.5 1.1-2.5 2.5s1.1 2.5 2.5 2.5h22.5c1.4 0 2.5-1.1 2.5-2.5s-1.1-2.5-2.5-2.5zM67.5 22.5H90c1.4 0 2.5-1.1 2.5-2.5s-1.1-2.5-2.5-2.5H67.5c-1.4 0-2.5 1.1-2.5 2.5s1.1 2.5 2.5 2.5zM90 47.5H67.5c-1.4 0-2.5 1.1-2.5 2.5s1.1 2.5 2.5 2.5H90c1.4 0 2.5-1.1 2.5-2.5s-1.1-2.5-2.5-2.5zM90 77.5H67.5c-1.4 0-2.5 1.1-2.5 2.5s1.1 2.5 2.5 2.5H90c1.4 0 2.5-1.1 2.5-2.5s-1.1-2.5-2.5-2.5z"/>
</svg>
