<svg fill="currentcolor" xml:space="preserve" viewBox="0 0 100 100" xmlns="http://www.w3.org/2000/svg">
<path d="M91.72 40.63c1.32 1.32 2.05 3.08 2.05 4.95s-.73 3.63-2.05 4.95l-40.3 40.3c-.39.39-.9.59-1.41.59s-1.02-.2-1.41-.59L8.28 50.53a7.007 7.007 0 0 1 0-9.9 7.007 7.007 0 0 1 9.9 0L50 72.45l31.82-31.82c1.32-1.32 3.08-2.05 4.95-2.05s3.63.73 4.95 2.05zm-43.13 20.2c.39.39.9.59 1.41.59s1.02-.2 1.41-.59l40.3-40.3c1.32-1.32 2.05-3.08 2.05-4.95s-.73-3.63-2.05-4.95c-1.32-1.32-3.08-2.05-4.95-2.05s-3.63.73-4.95 2.05L50 42.45 18.18 10.63a7.007 7.007 0 0 0-9.9 0 7.007 7.007 0 0 0 0 9.9l40.31 40.3z"/>
</svg>
