<svg fill="currentcolor" viewBox="0 0 65 65" xml:space="preserve" xmlns="http://www.w3.org/2000/svg">
<g fill="none" stroke="currentcolor" stroke-width="2" stroke-linejoin="round" stroke-miterlimit="10">
<path d="m62.7 10.9-8.6-8.6c-.5-.5-1.1-.8-1.8-.8H4.1c-1.4 0-2.6 1.2-2.6 2.6v56.8c0 1.4 1.2 2.6 2.6 2.6h56.8c1.4 0 2.6-1.2 2.6-2.6V12.7c0-.7-.3-1.3-.8-1.8z"/>
<path d="M12.3 36.6h40.4v26.9H12.3zM16.5 41.9h32M16.5 47.3h32M16.5 52.8h32M16.5 58.3h32M14.8 1.5V20c0 1.1.9 2 2 2h31.4c1.1 0 2-.9 2-2V1.5H14.8z"/>
<path d="M40.1 6.2h5.1v11.1h-5.1z"/>
</g>
</svg>
