<svg fill="currentcolor" viewBox="0 0 40 40" xml:space="preserve" xmlns="http://www.w3.org/2000/svg">
<path d="M20 1.5C9.799 1.5 1.5 9.799 1.5 20S9.799 38.5 20 38.5 38.5 30.201 38.5 20 30.201 1.5 20 1.5zM13.5 20c0-1.434.093-2.79.247-4.073 1.512.424 3.113.676 4.753.78v6.587c-1.64.104-3.241.356-4.753.78A34.117 34.117 0 0 1 13.5 20zm8-15.001c1.709 1.085 3.333 3.936 4.245 7.954-1.338.396-2.764.65-4.245.755V4.999zm-3 0v8.709a19.81 19.81 0 0 1-4.243-.765c.912-4.012 2.535-6.859 4.243-7.944zm0 21.293v8.709c-1.708-1.085-3.331-3.932-4.243-7.945a19.81 19.81 0 0 1 4.243-.764zm3 8.709v-8.708c1.48.105 2.907.358 4.245.755-.912 4.017-2.536 6.868-4.245 7.953zm0-11.706v-6.59a23.021 23.021 0 0 0 4.752-.781c.155 1.284.248 2.641.248 4.076s-.093 2.792-.248 4.076a23.021 23.021 0 0 0-4.752-.781zm7.635-8.427c1.581-.709 3.026-1.587 4.252-2.645C34.722 14.513 35.5 17.165 35.5 20s-.778 5.487-2.113 7.776c-1.226-1.058-2.671-1.936-4.252-2.645a36.16 36.16 0 0 0 0-10.263zm2.482-5.096a13.76 13.76 0 0 1-3.067 2.08c-.582-2.358-1.403-4.43-2.419-6.083a15.586 15.586 0 0 1 5.486 4.003zM13.87 5.77c-1.016 1.653-1.838 3.726-2.42 6.084a13.75 13.75 0 0 1-3.06-2.088 15.555 15.555 0 0 1 5.48-3.996zm-7.25 6.443c1.225 1.056 2.664 1.939 4.246 2.649a36.12 36.12 0 0 0 0 10.275c-1.582.71-3.021 1.594-4.246 2.649C5.281 25.495 4.5 22.84 4.5 20s.781-5.495 2.12-7.787zm1.77 18.021a13.75 13.75 0 0 1 3.06-2.088c.582 2.359 1.404 4.432 2.42 6.084a15.555 15.555 0 0 1-5.48-3.996zm17.74 3.996c1.016-1.652 1.838-3.724 2.419-6.083a13.749 13.749 0 0 1 3.067 2.08 15.544 15.544 0 0 1-5.486 4.003z"/>
</svg>
