<svg fill="currentcolor" viewBox="0 0 1200 1200" xmlns="http://www.w3.org/2000/svg">
<path d="M918.25 254.6 633.85 15.55c-1-1-2.102-1.7-3.148-2.55l-1.454-1.302c-.8-.648-1.699-.851-2.488-1.398-3.761-2.75-7.55-5.25-12.012-6.898-3.699-1.399-7.586-1.852-11.5-2.352C601.448.898 599.8 0 597.897 0c-.149 0-.301.05-.45.05C585.748 0 574.05 4 564.6 11.999l-283.3 242.95c-20.949 17.949-23.398 49.5-5.398 70.5 17.949 20.949 49.551 23.398 70.5 5.398l201.5-172.8v991.9c0 27.602 22.398 50 50 50s50-22.398 50-50v-992l206.1 173.16c9.398 7.899 20.801 11.75 32.148 11.75 14.25 0 28.387-6.05 38.336-17.852 17.715-21.05 14.965-52.648-6.234-70.398z"/>
</svg>
