<svg fill="currentcolor" viewBox="0 0 100 100" xmlns="http://www.w3.org/2000/svg">
<path style="text-indent:0;text-transform:none;direction:ltr;block-progression:tb;baseline-shift:baseline;color:currentcolor;enable-background:accumulate" d="M30 959.362c-2.753 0-5 2.247-5 5v5H12c-1.645 0-3 1.355-3 3v70c0 1.645 1.355 3 3 3h76c1.645 0 3-1.355 3-3v-70c0-1.645-1.355-3-3-3H75v-5c0-2.753-2.247-5-5-5s-5 2.247-5 5v5H35v-5c0-2.753-2.247-5-5-5zm0 2c1.68 0 3 1.32 3 3v12c0 1.68-1.32 3-3 3s-3-1.32-3-3v-12c0-1.68 1.32-3 3-3zm40 0c1.68 0 3 1.32 3 3v12c0 1.68-1.32 3-3 3s-3-1.32-3-3v-12c0-1.68 1.32-3 3-3zm-58 10h13v5c0 2.753 2.247 5 5 5s5-2.247 5-5v-5h30v5c0 2.753 2.247 5 5 5s5-2.247 5-5v-5h13c.571 0 1 .429 1 1v19H11v-19c0-.571.429-1 1-1zm-1 22h78v49c0 .571-.429 1-1 1H12c-.571 0-1-.429-1-1v-49zm42.875 10c-.397.051-.747.331-.844.719l-8 28c-.139.507.212 1.111.719 1.25s1.08-.212 1.219-.719l8-28c.194-.639-.432-1.341-1.094-1.25zM39 1007.331a.998.998 0 0 0-.531.156l-16 10c-.618.363-.639 1.307 0 1.719l16 10c.45.282 1.127.14 1.406-.313.28-.451.11-1.13-.344-1.406l-14.625-9.125 14.625-9.156c.393-.216.622-.725.5-1.156-.122-.431-.584-.741-1.031-.719zm21.969 0c-.442-.01-.855.323-.969.75-.114.427.082.91.469 1.125l14.625 9.156-14.625 9.125c-.454.277-.592.954-.313 1.406.28.452.925.595 1.375.313l16-10c.632-.392.593-1.366 0-1.719l-16-10a1.007 1.007 0 0 0-.562-.156z" overflow="visible" transform="translate(0 -952.362)"/>
</svg>
