<svg fill="currentcolor" viewBox="0 0 24 24" xmlns="http://www.w3.org/2000/svg">
<path d="m19.838 6.261-4.1-4.1A2.583 2.583 0 0 0 13.9 1.4H7A3.6 3.6 0 0 0 3.4 5v14A3.6 3.6 0 0 0 7 22.6h10a3.6 3.6 0 0 0 3.6-3.6V8.1a2.582 2.582 0 0 0-.762-1.839ZM19.4 19a2.4 2.4 0 0 1-2.4 2.4H7A2.4 2.4 0 0 1 4.6 19V5A2.4 2.4 0 0 1 7 2.6h6.9a1.4 1.4 0 0 1 .99.41l4.1 4.1a1.411 1.411 0 0 1 .41.99ZM14.715 7.606a.6.6 0 0 0-.849 0l-2.228 2.229h-.005v.005l-3.891 3.89a.6.6 0 0 0-.169.337l-.34 2.312a.6.6 0 0 0 .594.687.657.657 0 0 0 .087-.006l2.311-.341a.6.6 0 0 0 .337-.17l3.889-3.888.008-.005.005-.008 2.227-2.227a.6.6 0 0 0 0-.848Zm-4.866 7.958-1.315.194.193-1.316 3.331-3.33 1.122 1.122Zm4.179-4.179-1.122-1.122 1.385-1.385L15.413 10Z"/>
</svg>
