<?xml version="1.0" encoding="UTF-8"?>
<svg fill="currentcolor" version="1.1" viewBox="0 -64 512 640" xmlns="http://www.w3.org/2000/svg">
 <g>
  <path d="m479.74 0h-270.46c-6.6992 0-12.992 3.1562-17.023 8.4922l-177.02 234.67c-5.7383 7.5938-5.7383 18.098 0 25.727l177.02 234.67c4.0312 5.332 10.324 8.4492 17.023 8.4492h270.46c11.754 0 21.332-9.5586 21.332-21.332v-469.34c0-11.773-9.5781-21.332-21.336-21.332zm-21.332 469.33h-238.51l-160.91-213.33 160.91-213.33h238.51z"/>
  <path d="m220.82 175.64 68.969 69.312-68.969 69.312c-8.3203 8.3828-8.2773 21.887 0.0625 30.164 4.1602 4.1328 9.6016 6.25 15.062 6.25 5.4844 0 10.945-2.1133 15.105-6.293l68.871-69.211 68.879 69.211c4.1562 4.1758 9.6445 6.293 15.125 6.293 5.418 0 10.875-2.1133 15.039-6.25 8.3359-8.2812 8.3789-21.781 0.085937-30.164l-68.988-69.312 68.992-69.312c8.2969-8.3398 8.2578-21.844-0.085938-30.188-8.3828-8.2969-21.828-8.2578-30.164 0.0625l-68.891 69.188-68.863-69.184c-8.2969-8.3398-21.801-8.3633-30.164-0.0625-8.3438 8.3164-8.3633 21.844-0.066407 30.184z"/>
 </g>
</svg>
