</svg>
<svg fill="currentcolor" viewBox="0 0 64 64" xml:space="preserve" xmlns="http://www.w3.org/2000/svg">
<path d="M21.1 26H11c-1.7 0-3-1.3-3-3s1.3-3 3-3h9v-9c0-1.7 1.3-3 3-3s3 1.3 3 3v10.1c0 2.7-2.2 4.9-4.9 4.9zM53 26H42.9c-2.7 0-4.9-2.2-4.9-4.9V11c0-1.7 1.3-3 3-3s3 1.3 3 3v9h9c1.7 0 3 1.3 3 3s-1.3 3-3 3zM23 56c-1.7 0-3-1.3-3-3v-9h-9c-1.7 0-3-1.3-3-3s1.3-3 3-3h10.1c2.7 0 4.9 2.2 4.9 4.9V53c0 1.7-1.3 3-3 3zm-1.9-12zM41 56c-1.7 0-3-1.3-3-3V42.9c0-2.7 2.2-4.9 4.9-4.9H53c1.7 0 3 1.3 3 3s-1.3 3-3 3h-9v9c0 1.7-1.3 3-3 3z"/>
</svg>
