<svg fill="currentcolor" viewBox="17 -18 100 100" xml:space="preserve" xmlns="http://www.w3.org/2000/svg">
<path d="M43.4 55.6c-3-2.9-3-2.9-5.9 0l-5.9 5.9c-2.9 3-2.9 3 0 5.9s2.9 2.9 5.9 0l5.9-5.9c3-3 3-3 0-5.9zm59-59c-2.9-2.9-2.9-2.9-5.9 0l-5.9 5.9c-2.9 2.9-2.9 2.9 0 5.9 3 2.9 3 2.9 5.9 0l5.9-5.9c2.9-2.9 2.9-2.9 0-5.9zm-11.8 59c-2.9 3-2.9 3 0 5.9l5.9 5.9c3 2.9 3 2.9 5.9 0s2.9-2.9 0-5.9l-5.9-5.9c-3-3-3-3-5.9 0zm-59-59c-2.9 2.9-2.9 2.9 0 5.9l5.9 5.9c2.9 2.9 2.9 2.9 5.9 0 2.9-3 2.9-3 0-5.9l-5.9-5.9c-2.9-2.9-2.9-2.9-5.9 0zM67 65.3c-4.2 0-4.2 0-4.2 4.2v8.3c0 4.2 0 4.2 4.2 4.2s4.2 0 4.2-4.2v-8.3c0-4.2 0-4.2-4.2-4.2zM67-18c-4.2 0-4.2 0-4.2 4.2v8.3c0 4.2 0 4.2 4.2 4.2s4.2 0 4.2-4.2v-8.3c0-4.2 0-4.2-4.2-4.2zm33.3 50c0 4.2 0 4.2 4.2 4.2h8.3c4.2 0 4.2 0 4.2-4.2s0-4.2-4.2-4.2h-8.3c-4.2 0-4.2 0-4.2 4.2zM17 32c0 4.2 0 4.2 4.2 4.2h8.3c4.2 0 4.2 0 4.2-4.2s0-4.2-4.2-4.2h-8.3c-4.2 0-4.2 0-4.2 4.2zm50 16.7c-9.2 0-16.7-7.5-16.7-16.7S57.8 15.3 67 15.3 83.7 22.8 83.7 32 76.2 48.7 67 48.7zm0 8.3c13.8 0 25-11.2 25-25S80.8 7 67 7 42 18.2 42 32s11.2 25 25 25z"/>
</svg>
