<svg fill="currentcolor" viewBox="0 0 1200 1200" xmlns="http://www.w3.org/2000/svg">
<g fill-rule="evenodd">
<path d="M569.68 1037.4a42.553 42.553 0 0 0 6.555 5.356c1.05.707 2.207 1.203 3.324 1.8 1.328.73 2.633 1.543 4.047 2.145 1.414.578 2.894.922 4.351 1.348 1.223.367 2.38.835 3.645 1.074 2.785.554 5.59.855 8.398.855s5.614-.3 8.399-.855c1.265-.239 2.422-.707 3.644-1.074 1.457-.426 2.938-.77 4.352-1.348 1.414-.602 2.719-1.414 4.07-2.145 1.094-.597 2.25-1.094 3.3-1.8a42.553 42.553 0 0 0 6.556-5.356l342.84-342.84c16.738-16.734 16.738-43.863 0-60.602-16.715-16.734-43.887-16.734-60.598 0l-269.7 269.7V42.828c0-23.676-19.176-42.855-42.855-42.855-23.656 0-42.855 19.18-42.855 42.855v860.83l-269.7-269.7c-16.711-16.734-43.883-16.734-60.598 0-16.738 16.738-16.738 43.867 0 60.602l342.84 342.84M942.86 1114.3H257.15c-23.66 0-42.859 19.18-42.859 42.859 0 23.656 19.199 42.855 42.859 42.855h685.71c23.66 0 42.859-19.199 42.859-42.855 0-23.68-19.199-42.859-42.859-42.859"/>
</g>
</svg>
