<svg fill="currentcolor" xml:space="preserve" style="shape-rendering:geometricPrecision;text-rendering:geometricPrecision;image-rendering:optimizeQuality" viewBox="0 0 1.262 1.262" fill-rule="evenodd" clip-rule="evenodd" xmlns="http://www.w3.org/2000/svg">
<path d="M.631 0a.63.63 0 0 1 .446 1.077.63.63 0 1 1-.892-.892A.63.63 0 0 1 .631 0zm0 .516c.063 0 .115.052.115.115a.116.116 0 0 1-.115.115.116.116 0 0 1-.115-.115c0-.063.052-.115.115-.115zm0-.258a.375.375 0 0 1 .373.373.375.375 0 0 1-.373.373.375.375 0 0 1-.373-.373.375.375 0 0 1 .373-.373zm.182.19a.258.258 0 1 0-.364.366.258.258 0 0 0 .364-.366zM.996.266A.512.512 0 0 0 .631.115a.51.51 0 0 0-.365.151.51.51 0 0 0-.151.365.512.512 0 0 0 .516.516.516.516 0 0 0 .365-.881z" style="fill:currentcolor;fill-rule:nonzero"/>
</svg>
