<svg fill="currentcolor" viewBox="0 0 1200 1200" xmlns="http://www.w3.org/2000/svg">
<path d="M924.1 874.6c-17.949-20.949-49.551-23.352-70.551-5.352l-205.7 176.31V49.998c0-27.602-22.352-50-50-50-27.602 0-50 22.398-50 50v988.5l-201.9-169.7c-21.102-17.75-52.699-14.938-70.449 6.2-17.75 21.102-15 52.648 6.148 70.398l274.75 230.9c8.852 13.96 23.75 23.699 41.5 23.699.852 0 1.5-.399 2.301-.399.899 0 1.75.399 2.7.399 11.55 0 23.147-4 32.448-12l283.3-242.86c21-18.031 23.453-49.57 5.453-70.531z"/>
</svg>
