<svg fill="currentcolor" xml:space="preserve" viewBox="0 0 100 100" xmlns="http://www.w3.org/2000/svg">
<path d="M48.941 34.883v-5.722a1.912 1.912 0 0 0-1.907-1.907H18.621a1.912 1.912 0 0 0-1.907 1.907v5.722c0 1.049.858 1.907 1.907 1.907h28.413a1.912 1.912 0 0 0 1.907-1.907zm-30.32-5.722h28.413v5.722H18.621v-5.722zm37.252 46.047H9.783V21.291h46.09v18.375h4.768V18.431a1.912 1.912 0 0 0-1.907-1.907H6.921a1.912 1.912 0 0 0-1.907 1.907V78.07c0 1.049.858 1.907 1.907 1.907h51.812a1.912 1.912 0 0 0 1.907-1.907V56.833h-4.768v18.375zM87.714 48.25l6.743-6.743a1.912 1.912 0 0 0 0-2.697l-2.697-2.697a1.912 1.912 0 0 0-2.697 0l-6.743 6.743-6.743-6.743a1.912 1.912 0 0 0-2.697 0l-2.697 2.697a1.912 1.912 0 0 0 0 2.697l6.743 6.743-6.743 6.743a1.912 1.912 0 0 0 0 2.697l2.697 2.697a1.912 1.912 0 0 0 2.697 0l6.743-6.743 6.743 6.743a1.912 1.912 0 0 0 2.697 0l2.697-2.697a1.912 1.912 0 0 0 0-2.697l-6.743-6.743zm-21.499-4.768H29.761c-.99 0-1.8.81-1.8 1.8v5.937c0 .99.81 1.8 1.8 1.8h36.454c.99 0 1.8-.81 1.8-1.8v-5.937c0-.99-.81-1.8-1.8-1.8zM16.714 61.617v5.722c0 1.049.858 1.907 1.907 1.907h28.413a1.912 1.912 0 0 0 1.907-1.907v-5.722a1.912 1.912 0 0 0-1.907-1.907H18.621a1.912 1.912 0 0 0-1.907 1.907zm1.907-.001h28.413v5.722H18.621v-5.722z"/>
</svg>
